<svg width="60" height="64" viewBox="0 0 60 64" fill="none" xmlns="http://www.w3.org/2000/svg">
<g clip-path="url(#clip0_9_12987)">
<g filter="url(#filter0_d_9_12987)">
<rect y="4.33887" width="59.661" height="59.661" rx="8.67761" fill="#612B1F"/>
<rect width="60" height="60" rx="8.67761" fill="url(#paint0_linear_9_12987)"/>
<path d="M43.5 17.625V22.6875C43.5 22.9859 43.3815 23.272 43.1705 23.483C42.9595 23.694 42.6734 23.8125 42.375 23.8125C42.0766 23.8125 41.7905 23.694 41.5795 23.483C41.3685 23.272 41.25 22.9859 41.25 22.6875V18.75H37.3125C37.0141 18.75 36.728 18.6315 36.517 18.4205C36.306 18.2095 36.1875 17.9234 36.1875 17.625C36.1875 17.3266 36.306 17.0405 36.517 16.8295C36.728 16.6185 37.0141 16.5 37.3125 16.5H42.375C42.6734 16.5 42.9595 16.6185 43.1705 16.8295C43.3815 17.0405 43.5 17.3266 43.5 17.625ZM42.375 36.1875C42.0766 36.1875 41.7905 36.306 41.5795 36.517C41.3685 36.728 41.25 37.0141 41.25 37.3125V41.25H37.3125C37.0141 41.25 36.728 41.3685 36.517 41.5795C36.306 41.7905 36.1875 42.0766 36.1875 42.375C36.1875 42.6734 36.306 42.9595 36.517 43.1705C36.728 43.3815 37.0141 43.5 37.3125 43.5H42.375C42.6734 43.5 42.9595 43.3815 43.1705 43.1705C43.3815 42.9595 43.5 42.6734 43.5 42.375V37.3125C43.5 37.0141 43.3815 36.728 43.1705 36.517C42.9595 36.306 42.6734 36.1875 42.375 36.1875ZM22.6875 41.25H18.75V37.3125C18.75 37.0141 18.6315 36.728 18.4205 36.517C18.2095 36.306 17.9234 36.1875 17.625 36.1875C17.3266 36.1875 17.0405 36.306 16.8295 36.517C16.6185 36.728 16.5 37.0141 16.5 37.3125V42.375C16.5 42.6734 16.6185 42.9595 16.8295 43.1705C17.0405 43.3815 17.3266 43.5 17.625 43.5H22.6875C22.9859 43.5 23.272 43.3815 23.483 43.1705C23.694 42.9595 23.8125 42.6734 23.8125 42.375C23.8125 42.0766 23.694 41.7905 23.483 41.5795C23.272 41.3685 22.9859 41.25 22.6875 41.25ZM17.625 23.8125C17.9234 23.8125 18.2095 23.694 18.4205 23.483C18.6315 23.272 18.75 22.9859 18.75 22.6875V18.75H22.6875C22.9859 18.75 23.272 18.6315 23.483 18.4205C23.694 18.2095 23.8125 17.9234 23.8125 17.625C23.8125 17.3266 23.694 17.0405 23.483 16.8295C23.272 16.6185 22.9859 16.5 22.6875 16.5H17.625C17.3266 16.5 17.0405 16.6185 16.8295 16.8295C16.6185 17.0405 16.5 17.3266 16.5 17.625V22.6875C16.5 22.9859 16.6185 23.272 16.8295 23.483C17.0405 23.694 17.3266 23.8125 17.625 23.8125ZM26.2031 31.8998C24.6749 32.5628 23.3466 33.6138 22.35 34.9486C22.2242 35.1157 22.1476 35.3146 22.1286 35.5229C22.1096 35.7312 22.1491 35.9407 22.2426 36.1278C22.336 36.3149 22.4798 36.4723 22.6578 36.5822C22.8358 36.6921 23.0408 36.7502 23.25 36.75H36.75C36.9592 36.7502 37.1642 36.6921 37.3422 36.5822C37.5202 36.4723 37.664 36.3149 37.7574 36.1278C37.8509 35.9407 37.8904 35.7312 37.8714 35.5229C37.8524 35.3146 37.7758 35.1157 37.65 34.9486C36.6534 33.6138 35.3251 32.5628 33.7969 31.8998C34.6346 31.135 35.2215 30.1348 35.4805 29.0305C35.7396 27.9262 35.6588 26.7694 35.2486 25.7118C34.8385 24.6543 34.1182 23.7454 33.1822 23.1046C32.2463 22.4637 31.1385 22.1208 30.0042 22.1208C28.8699 22.1208 27.7621 22.4637 26.8262 23.1046C25.8903 23.7454 25.17 24.6543 24.7598 25.7118C24.3497 26.7694 24.2688 27.9262 24.5279 29.0305C24.787 30.1348 25.3739 31.135 26.2116 31.8998H26.2031Z" fill="white"/>
</g>
</g>
<defs>
<filter id="filter0_d_9_12987" x="-1.0847" y="0" width="68.6776" height="72.6774" filterUnits="userSpaceOnUse" color-interpolation-filters="sRGB">
<feFlood flood-opacity="0" result="BackgroundImageFix"/>
<feColorMatrix in="SourceAlpha" type="matrix" values="0 0 0 0 0 0 0 0 0 0 0 0 0 0 0 0 0 0 127 0" result="hardAlpha"/>
<feOffset dx="3.2541" dy="4.33881"/>
<feGaussianBlur stdDeviation="2.1694"/>
<feComposite in2="hardAlpha" operator="out"/>
<feColorMatrix type="matrix" values="0 0 0 0 0 0 0 0 0 0 0 0 0 0 0 0 0 0 0.12 0"/>
<feBlend mode="normal" in2="BackgroundImageFix" result="effect1_dropShadow_9_12987"/>
<feBlend mode="normal" in="SourceGraphic" in2="effect1_dropShadow_9_12987" result="shape"/>
</filter>
<linearGradient id="paint0_linear_9_12987" x1="0" y1="0" x2="60" y2="60" gradientUnits="userSpaceOnUse">
<stop stop-color="#FF2F00"/>
<stop offset="1" stop-color="#FF4D25"/>
</linearGradient>
<clipPath id="clip0_9_12987">
<rect width="60" height="63.9998" fill="white"/>
</clipPath>
</defs>
</svg>
