<svg width="48" height="18" viewBox="0 0 48 18" fill="none" xmlns="http://www.w3.org/2000/svg">
<g clip-path="url(#clip0_2_3279)">
<path d="M2.48145 9.69763C2.48145 9.89552 2.5672 10.0868 2.71891 10.2319L7.06592 14.5789C7.22423 14.7307 7.40234 14.8032 7.58044 14.8032C7.99601 14.8032 8.29284 14.5064 8.29284 14.1106C8.29284 13.9061 8.21369 13.728 8.08176 13.6027L6.60417 12.1053L4.65165 10.3243L6.1952 10.4166H14.2164C14.6451 10.4166 14.9486 10.1198 14.9486 9.69763C14.9486 9.26887 14.6451 8.97862 14.2164 8.97862H6.1952L4.65825 9.07097L6.60417 7.28996L8.08176 5.79258C8.21369 5.66065 8.29284 5.48255 8.29284 5.27806C8.29284 4.88228 7.99601 4.59204 7.58044 4.59204C7.40234 4.59204 7.22423 4.658 7.05273 4.82291L2.71891 9.16332C2.5672 9.30185 2.48145 9.49974 2.48145 9.69763Z" fill="#2D3039" fill-opacity="0.6"/>
<path d="M45.3446 9.69763C45.3446 9.49974 45.2588 9.30185 45.1071 9.16332L40.7667 4.82291C40.6018 4.658 40.4237 4.59204 40.239 4.59204C39.83 4.59204 39.5332 4.88228 39.5332 5.27806C39.5332 5.48255 39.6123 5.66065 39.7443 5.79258L41.2218 7.28996L43.1612 9.07097L41.6308 8.97862H33.6096C33.1743 8.97862 32.8774 9.26887 32.8774 9.69763C32.8774 10.1198 33.1743 10.4166 33.6096 10.4166H41.6308L43.1678 10.3243L41.2218 12.1053L39.7443 13.6027C39.6123 13.728 39.5332 13.9061 39.5332 14.1106C39.5332 14.5064 39.83 14.8032 40.239 14.8032C40.4237 14.8032 40.5952 14.7307 40.7535 14.5789L45.1071 10.2319C45.2588 10.0868 45.3446 9.89552 45.3446 9.69763Z" fill="#2D3039" fill-opacity="0.2"/>
</g>
<defs>
<clipPath id="clip0_2_3279">
<rect width="47.2828" height="16.8867" fill="white" transform="translate(0.286133 0.95752)"/>
</clipPath>
</defs>
</svg>
