<svg width="392" height="203" viewBox="0 0 392 203" fill="none" xmlns="http://www.w3.org/2000/svg">
<g clip-path="url(#clip0_2_12965)">
<path opacity="0.9" d="M170.75 202.5V184V0" stroke="url(#paint0_linear_2_12965)" stroke-opacity="0.6" stroke-width="1.5"/>
<path opacity="0.9" d="M0.25 101H53.7305C59.8057 101 64.7305 96.0751 64.7305 90V90C64.7305 83.9249 69.6554 79 75.7305 79H229.75" stroke="url(#paint1_linear_2_12965)" stroke-opacity="0.6" stroke-width="1.5"/>
<path opacity="0.9" d="M152.75 168H140.844C129.661 168 124.07 168 119.659 166.173C113.779 163.737 109.106 159.065 106.671 153.184C104.844 148.774 104.844 143.183 104.844 132V132L104.844 93C104.844 62.8301 104.844 47.7452 114.216 38.3726C123.589 29 138.674 29 168.844 29H262.25" stroke="url(#paint2_linear_2_12965)" stroke-opacity="0.6" stroke-width="1.5"/>
<path opacity="0.9" d="M188.75 170L201.75 170C224.377 170 235.691 170 242.721 162.971C249.75 155.941 249.75 144.627 249.75 122L249.75 97L249.75 40C249.75 34.201 254.451 29.5 260.25 29.5V29.5" stroke="url(#paint3_linear_2_12965)" stroke-opacity="0.6" stroke-width="1.5"/>
<path opacity="0.9" d="M295.75 31V31C302.722 31 308.373 36.6517 308.373 43.6234V51C308.373 62.0457 317.328 71 328.373 71L391.75 71" stroke="url(#paint4_linear_2_12965)" stroke-opacity="0.6" stroke-width="1.5"/>
<g filter="url(#filter0_ddi_2_12965)">
<rect x="148.75" y="61" width="35.7778" height="35.7778" rx="12" fill="white"/>
<rect x="148.75" y="61" width="35.7778" height="35.7778" rx="12" fill="url(#paint5_linear_2_12965)"/>
<path d="M165.306 73.0517C165.774 72.5938 166.007 72.3649 166.276 72.2789C166.512 72.2033 166.766 72.2033 167.002 72.2789C167.27 72.3649 167.504 72.5938 167.972 73.0517L168.196 73.2718C168.398 73.4698 168.5 73.5687 168.617 73.6399C168.721 73.703 168.834 73.7498 168.952 73.7787C169.085 73.8113 169.226 73.8127 169.509 73.8157L169.824 73.8189C170.478 73.8257 170.805 73.8291 171.056 73.9581C171.276 74.0716 171.456 74.2512 171.57 74.4717C171.699 74.7223 171.702 75.0495 171.709 75.7037L171.712 76.0183C171.715 76.3012 171.716 76.4426 171.749 76.5759C171.778 76.694 171.825 76.807 171.888 76.9109C171.959 77.0282 172.058 77.1292 172.256 77.3313L172.476 77.5561C172.934 78.0235 173.163 78.2572 173.249 78.5257C173.324 78.7619 173.324 79.0158 173.249 79.252C173.163 79.5204 172.934 79.7542 172.476 80.2216L172.256 80.4464C172.058 80.6485 171.959 80.7495 171.888 80.8667C171.825 80.9707 171.778 81.0837 171.749 81.2018C171.716 81.335 171.715 81.4765 171.712 81.7593L171.709 82.0739C171.702 82.7282 171.699 83.0553 171.57 83.306C171.456 83.5265 171.276 83.706 171.056 83.8195C170.805 83.9486 170.478 83.952 169.824 83.9587L169.509 83.962C169.226 83.9649 169.085 83.9664 168.952 83.999C168.834 84.0279 168.721 84.0747 168.617 84.1378C168.5 84.2089 168.398 84.3079 168.196 84.5059L167.972 84.726C167.504 85.1838 167.27 85.4128 167.002 85.4988C166.766 85.5744 166.512 85.5744 166.276 85.4988C166.007 85.4128 165.774 85.1838 165.306 84.726L165.081 84.5059C164.879 84.3079 164.778 84.2089 164.661 84.1378C164.557 84.0747 164.444 84.0279 164.326 83.999C164.193 83.9664 164.051 83.9649 163.768 83.962L163.454 83.9587C162.799 83.952 162.472 83.9486 162.222 83.8195C162.001 83.706 161.822 83.5265 161.708 83.306C161.579 83.0553 161.576 82.7282 161.569 82.0739L161.566 81.7593C161.563 81.4765 161.561 81.335 161.529 81.2018C161.5 81.0837 161.453 80.9707 161.39 80.8667C161.319 80.7495 161.22 80.6485 161.022 80.4464L160.802 80.2216C160.344 79.7542 160.115 79.5204 160.029 79.252C159.953 79.0158 159.953 78.7619 160.029 78.5257C160.115 78.2572 160.344 78.0235 160.802 77.5561L161.022 77.3313C161.22 77.1292 161.319 77.0282 161.39 76.9109C161.453 76.807 161.5 76.694 161.529 76.5759C161.561 76.4426 161.563 76.3012 161.566 76.0183L161.569 75.7037C161.576 75.0495 161.579 74.7223 161.708 74.4717C161.822 74.2512 162.001 74.0716 162.222 73.9581C162.472 73.8291 162.799 73.8257 163.454 73.8189L163.768 73.8157C164.051 73.8127 164.193 73.8113 164.326 73.7787C164.444 73.7498 164.557 73.703 164.661 73.6399C164.778 73.5687 164.879 73.4698 165.081 73.2718L165.306 73.0517Z" stroke="#394912" stroke-width="1.5" stroke-linecap="round" stroke-linejoin="round"/>
<path d="M165.891 78.8889C165.891 78.4798 166.23 78.1481 166.639 78.1481C167.048 78.1481 167.387 78.4798 167.387 78.8889C167.387 79.298 167.048 79.6296 166.639 79.6296C166.23 79.6296 165.891 79.298 165.891 78.8889Z" stroke="#394912" stroke-width="1.5" stroke-linecap="round" stroke-linejoin="round"/>
</g>
<g filter="url(#filter1_ddi_2_12965)">
<rect x="229.75" y="61" width="35.7778" height="35.7778" rx="12" fill="white"/>
<rect x="229.75" y="61" width="35.7778" height="35.7778" rx="12" fill="url(#paint6_linear_2_12965)"/>
<path d="M246.306 73.0517C246.774 72.5938 247.007 72.3649 247.276 72.2789C247.512 72.2033 247.766 72.2033 248.002 72.2789C248.27 72.3649 248.504 72.5938 248.972 73.0517L249.196 73.2718C249.398 73.4698 249.5 73.5687 249.617 73.6399C249.721 73.703 249.834 73.7498 249.952 73.7787C250.085 73.8113 250.226 73.8127 250.509 73.8157L250.824 73.8189C251.478 73.8257 251.805 73.8291 252.056 73.9581C252.276 74.0716 252.456 74.2512 252.57 74.4717C252.699 74.7223 252.702 75.0495 252.709 75.7037L252.712 76.0183C252.715 76.3012 252.716 76.4426 252.749 76.5759C252.778 76.694 252.825 76.807 252.888 76.9109C252.959 77.0282 253.058 77.1292 253.256 77.3313L253.476 77.5561C253.934 78.0235 254.163 78.2572 254.249 78.5257C254.324 78.7619 254.324 79.0158 254.249 79.252C254.163 79.5204 253.934 79.7542 253.476 80.2216L253.256 80.4464C253.058 80.6485 252.959 80.7495 252.888 80.8667C252.825 80.9707 252.778 81.0837 252.749 81.2018C252.716 81.335 252.715 81.4765 252.712 81.7593L252.709 82.0739C252.702 82.7282 252.699 83.0553 252.57 83.306C252.456 83.5265 252.276 83.706 252.056 83.8195C251.805 83.9486 251.478 83.952 250.824 83.9587L250.509 83.962C250.226 83.9649 250.085 83.9664 249.952 83.999C249.834 84.0279 249.721 84.0747 249.617 84.1378C249.5 84.2089 249.398 84.3079 249.196 84.5059L248.972 84.726C248.504 85.1838 248.27 85.4128 248.002 85.4988C247.766 85.5744 247.512 85.5744 247.276 85.4988C247.007 85.4128 246.774 85.1838 246.306 84.726L246.081 84.5059C245.879 84.3079 245.778 84.2089 245.661 84.1378C245.557 84.0747 245.444 84.0279 245.326 83.999C245.193 83.9664 245.051 83.9649 244.768 83.962L244.454 83.9587C243.799 83.952 243.472 83.9486 243.222 83.8195C243.001 83.706 242.822 83.5265 242.708 83.306C242.579 83.0553 242.576 82.7282 242.569 82.0739L242.566 81.7593C242.563 81.4765 242.561 81.335 242.529 81.2018C242.5 81.0837 242.453 80.9707 242.39 80.8667C242.319 80.7495 242.22 80.6485 242.022 80.4464L241.802 80.2216C241.344 79.7542 241.115 79.5204 241.029 79.252C240.953 79.0158 240.953 78.7619 241.029 78.5257C241.115 78.2572 241.344 78.0235 241.802 77.5561L242.022 77.3313C242.22 77.1292 242.319 77.0282 242.39 76.9109C242.453 76.807 242.5 76.694 242.529 76.5759C242.561 76.4426 242.563 76.3012 242.566 76.0183L242.569 75.7037C242.576 75.0495 242.579 74.7223 242.708 74.4717C242.822 74.2512 243.001 74.0716 243.222 73.9581C243.472 73.8291 243.799 73.8257 244.454 73.8189L244.768 73.8157C245.051 73.8127 245.193 73.8113 245.326 73.7787C245.444 73.7498 245.557 73.703 245.661 73.6399C245.778 73.5687 245.879 73.4698 246.081 73.2718L246.306 73.0517Z" stroke="#394912" stroke-width="1.5" stroke-linecap="round" stroke-linejoin="round"/>
<path d="M246.891 78.8889C246.891 78.4798 247.23 78.1481 247.639 78.1481C248.048 78.1481 248.387 78.4798 248.387 78.8889C248.387 79.298 248.048 79.6296 247.639 79.6296C247.23 79.6296 246.891 79.298 246.891 78.8889Z" stroke="#394912" stroke-width="1.5" stroke-linecap="round" stroke-linejoin="round"/>
</g>
<g filter="url(#filter2_ddi_2_12965)">
<rect x="152.75" y="150" width="35.7778" height="35.7778" rx="12" fill="white"/>
<rect x="152.75" y="150" width="35.7778" height="35.7778" rx="12" fill="url(#paint7_linear_2_12965)"/>
<path d="M169.306 162.052C169.774 161.594 170.007 161.365 170.276 161.279C170.512 161.203 170.766 161.203 171.002 161.279C171.27 161.365 171.504 161.594 171.972 162.052L172.196 162.272C172.398 162.47 172.5 162.569 172.617 162.64C172.721 162.703 172.834 162.75 172.952 162.779C173.085 162.811 173.226 162.813 173.509 162.816L173.824 162.819C174.478 162.826 174.805 162.829 175.056 162.958C175.276 163.072 175.456 163.251 175.57 163.472C175.699 163.722 175.702 164.049 175.709 164.704L175.712 165.018C175.715 165.301 175.716 165.443 175.749 165.576C175.778 165.694 175.825 165.807 175.888 165.911C175.959 166.028 176.058 166.129 176.256 166.331L176.476 166.556C176.934 167.024 177.163 167.257 177.249 167.526C177.324 167.762 177.324 168.016 177.249 168.252C177.163 168.52 176.934 168.754 176.476 169.222L176.256 169.446C176.058 169.648 175.959 169.75 175.888 169.867C175.825 169.971 175.778 170.084 175.749 170.202C175.716 170.335 175.715 170.476 175.712 170.759L175.709 171.074C175.702 171.728 175.699 172.055 175.57 172.306C175.456 172.526 175.276 172.706 175.056 172.82C174.805 172.949 174.478 172.952 173.824 172.959L173.509 172.962C173.226 172.965 173.085 172.966 172.952 172.999C172.834 173.028 172.721 173.075 172.617 173.138C172.5 173.209 172.398 173.308 172.196 173.506L171.972 173.726C171.504 174.184 171.27 174.413 171.002 174.499C170.766 174.574 170.512 174.574 170.276 174.499C170.007 174.413 169.774 174.184 169.306 173.726L169.081 173.506C168.879 173.308 168.778 173.209 168.661 173.138C168.557 173.075 168.444 173.028 168.326 172.999C168.193 172.966 168.051 172.965 167.768 172.962L167.454 172.959C166.799 172.952 166.472 172.949 166.222 172.82C166.001 172.706 165.822 172.526 165.708 172.306C165.579 172.055 165.576 171.728 165.569 171.074L165.566 170.759C165.563 170.476 165.561 170.335 165.529 170.202C165.5 170.084 165.453 169.971 165.39 169.867C165.319 169.75 165.22 169.648 165.022 169.446L164.802 169.222C164.344 168.754 164.115 168.52 164.029 168.252C163.953 168.016 163.953 167.762 164.029 167.526C164.115 167.257 164.344 167.024 164.802 166.556L165.022 166.331C165.22 166.129 165.319 166.028 165.39 165.911C165.453 165.807 165.5 165.694 165.529 165.576C165.561 165.443 165.563 165.301 165.566 165.018L165.569 164.704C165.576 164.049 165.579 163.722 165.708 163.472C165.822 163.251 166.001 163.072 166.222 162.958C166.472 162.829 166.799 162.826 167.454 162.819L167.768 162.816C168.051 162.813 168.193 162.811 168.326 162.779C168.444 162.75 168.557 162.703 168.661 162.64C168.778 162.569 168.879 162.47 169.081 162.272L169.306 162.052Z" stroke="#394912" stroke-width="1.5" stroke-linecap="round" stroke-linejoin="round"/>
<path d="M169.891 167.889C169.891 167.48 170.23 167.148 170.639 167.148C171.048 167.148 171.387 167.48 171.387 167.889C171.387 168.298 171.048 168.63 170.639 168.63C170.23 168.63 169.891 168.298 169.891 167.889Z" stroke="#394912" stroke-width="1.5" stroke-linecap="round" stroke-linejoin="round"/>
</g>
<g filter="url(#filter3_ddi_2_12965)">
<rect x="259.75" y="13" width="35.7778" height="35.7778" rx="12" fill="white"/>
<rect x="259.75" y="13" width="35.7778" height="35.7778" rx="12" fill="url(#paint8_linear_2_12965)"/>
<path d="M276.306 25.0517C276.774 24.5938 277.007 24.3649 277.276 24.2789C277.512 24.2033 277.766 24.2033 278.002 24.2789C278.27 24.3649 278.504 24.5938 278.972 25.0517L279.196 25.2718C279.398 25.4698 279.5 25.5687 279.617 25.6399C279.721 25.703 279.834 25.7498 279.952 25.7787C280.085 25.8113 280.226 25.8127 280.509 25.8157L280.824 25.8189C281.478 25.8257 281.805 25.8291 282.056 25.9581C282.276 26.0716 282.456 26.2512 282.57 26.4717C282.699 26.7223 282.702 27.0495 282.709 27.7037L282.712 28.0183C282.715 28.3012 282.716 28.4426 282.749 28.5759C282.778 28.694 282.825 28.807 282.888 28.9109C282.959 29.0282 283.058 29.1292 283.256 29.3313L283.476 29.5561C283.934 30.0235 284.163 30.2572 284.249 30.5257C284.324 30.7619 284.324 31.0158 284.249 31.252C284.163 31.5204 283.934 31.7542 283.476 32.2216L283.256 32.4464C283.058 32.6485 282.959 32.7495 282.888 32.8667C282.825 32.9707 282.778 33.0837 282.749 33.2018C282.716 33.335 282.715 33.4765 282.712 33.7593L282.709 34.0739C282.702 34.7282 282.699 35.0553 282.57 35.306C282.456 35.5265 282.276 35.706 282.056 35.8195C281.805 35.9486 281.478 35.952 280.824 35.9587L280.509 35.962C280.226 35.9649 280.085 35.9664 279.952 35.999C279.834 36.0279 279.721 36.0747 279.617 36.1378C279.5 36.2089 279.398 36.3079 279.196 36.5059L278.972 36.726C278.504 37.1838 278.27 37.4128 278.002 37.4988C277.766 37.5744 277.512 37.5744 277.276 37.4988C277.007 37.4128 276.774 37.1838 276.306 36.726L276.081 36.5059C275.879 36.3079 275.778 36.2089 275.661 36.1378C275.557 36.0747 275.444 36.0279 275.326 35.999C275.193 35.9664 275.051 35.9649 274.768 35.962L274.454 35.9587C273.799 35.952 273.472 35.9486 273.222 35.8195C273.001 35.706 272.822 35.5265 272.708 35.306C272.579 35.0553 272.576 34.7282 272.569 34.0739L272.566 33.7593C272.563 33.4765 272.561 33.335 272.529 33.2018C272.5 33.0837 272.453 32.9707 272.39 32.8667C272.319 32.7495 272.22 32.6485 272.022 32.4464L271.802 32.2216C271.344 31.7542 271.115 31.5204 271.029 31.252C270.953 31.0158 270.953 30.7619 271.029 30.5257C271.115 30.2572 271.344 30.0235 271.802 29.5561L272.022 29.3313C272.22 29.1292 272.319 29.0282 272.39 28.9109C272.453 28.807 272.5 28.694 272.529 28.5759C272.561 28.4426 272.563 28.3012 272.566 28.0183L272.569 27.7037C272.576 27.0495 272.579 26.7223 272.708 26.4717C272.822 26.2512 273.001 26.0716 273.222 25.9581C273.472 25.8291 273.799 25.8257 274.454 25.8189L274.768 25.8157C275.051 25.8127 275.193 25.8113 275.326 25.7787C275.444 25.7498 275.557 25.703 275.661 25.6399C275.778 25.5687 275.879 25.4698 276.081 25.2718L276.306 25.0517Z" stroke="#394912" stroke-width="1.5" stroke-linecap="round" stroke-linejoin="round"/>
<path d="M276.891 30.8889C276.891 30.4798 277.23 30.1481 277.639 30.1481C278.048 30.1481 278.387 30.4798 278.387 30.8889C278.387 31.298 278.048 31.6296 277.639 31.6296C277.23 31.6296 276.891 31.298 276.891 30.8889Z" stroke="#394912" stroke-width="1.5" stroke-linecap="round" stroke-linejoin="round"/>
</g>
<g filter="url(#filter4_ddi_2_12965)">
<rect x="16.75" y="83" width="35.7778" height="35.7778" rx="12" fill="white"/>
<rect x="16.75" y="83" width="35.7778" height="35.7778" rx="12" fill="url(#paint9_linear_2_12965)"/>
<path d="M33.3061 95.0517C33.7735 94.5938 34.0072 94.3649 34.2757 94.2789C34.5119 94.2033 34.7658 94.2033 35.002 94.2789C35.2704 94.3649 35.5042 94.5938 35.9716 95.0517L36.1964 95.2718C36.3985 95.4698 36.4995 95.5687 36.6167 95.6399C36.7207 95.703 36.8337 95.7498 36.9518 95.7787C37.085 95.8113 37.2265 95.8127 37.5093 95.8157L37.8239 95.8189C38.4782 95.8257 38.8053 95.8291 39.056 95.9581C39.2765 96.0716 39.456 96.2512 39.5695 96.4717C39.6986 96.7223 39.702 97.0495 39.7087 97.7037L39.712 98.0183C39.7149 98.3012 39.7164 98.4426 39.749 98.5759C39.7779 98.694 39.8247 98.807 39.8878 98.9109C39.9589 99.0282 40.0579 99.1292 40.2559 99.3313L40.476 99.5561C40.9338 100.024 41.1628 100.257 41.2488 100.526C41.3244 100.762 41.3244 101.016 41.2488 101.252C41.1628 101.52 40.9338 101.754 40.476 102.222L40.2559 102.446C40.0579 102.648 39.9589 102.75 39.8878 102.867C39.8247 102.971 39.7779 103.084 39.749 103.202C39.7164 103.335 39.7149 103.476 39.712 103.759L39.7087 104.074C39.702 104.728 39.6986 105.055 39.5695 105.306C39.456 105.526 39.2765 105.706 39.056 105.82C38.8053 105.949 38.4782 105.952 37.8239 105.959L37.5093 105.962C37.2265 105.965 37.085 105.966 36.9518 105.999C36.8337 106.028 36.7207 106.075 36.6167 106.138C36.4995 106.209 36.3985 106.308 36.1964 106.506L35.9716 106.726C35.5042 107.184 35.2704 107.413 35.002 107.499C34.7658 107.574 34.5119 107.574 34.2757 107.499C34.0072 107.413 33.7735 107.184 33.3061 106.726L33.0813 106.506C32.8792 106.308 32.7782 106.209 32.6609 106.138C32.557 106.075 32.444 106.028 32.3259 105.999C32.1926 105.966 32.0512 105.965 31.7683 105.962L31.4537 105.959C30.7995 105.952 30.4723 105.949 30.2217 105.82C30.0012 105.706 29.8216 105.526 29.7081 105.306C29.5791 105.055 29.5757 104.728 29.5689 104.074L29.5657 103.759C29.5627 103.476 29.5613 103.335 29.5287 103.202C29.4998 103.084 29.453 102.971 29.3899 102.867C29.3187 102.75 29.2198 102.648 29.0218 102.446L28.8017 102.222C28.3438 101.754 28.1149 101.52 28.0289 101.252C27.9533 101.016 27.9533 100.762 28.0289 100.526C28.1149 100.257 28.3438 100.024 28.8017 99.5561L29.0218 99.3313C29.2198 99.1292 29.3187 99.0282 29.3899 98.9109C29.453 98.807 29.4998 98.694 29.5287 98.5759C29.5613 98.4426 29.5627 98.3012 29.5657 98.0183L29.5689 97.7037C29.5757 97.0495 29.5791 96.7223 29.7081 96.4717C29.8216 96.2512 30.0012 96.0716 30.2217 95.9581C30.4723 95.8291 30.7995 95.8257 31.4537 95.8189L31.7683 95.8157C32.0512 95.8127 32.1926 95.8113 32.3259 95.7787C32.444 95.7498 32.557 95.703 32.6609 95.6399C32.7782 95.5687 32.8792 95.4698 33.0813 95.2718L33.3061 95.0517Z" stroke="#394912" stroke-width="1.5" stroke-linecap="round" stroke-linejoin="round"/>
<path d="M33.8914 100.889C33.8914 100.48 34.2299 100.148 34.639 100.148C35.0481 100.148 35.3865 100.48 35.3865 100.889C35.3865 101.298 35.0481 101.63 34.639 101.63C34.2299 101.63 33.8914 101.298 33.8914 100.889Z" stroke="#394912" stroke-width="1.5" stroke-linecap="round" stroke-linejoin="round"/>
</g>
<g filter="url(#filter5_ddi_2_12965)">
<rect x="342.75" y="53" width="35.7778" height="35.7778" rx="12" fill="white"/>
<rect x="342.75" y="53" width="35.7778" height="35.7778" rx="12" fill="url(#paint10_linear_2_12965)"/>
<path d="M359.306 65.0517C359.774 64.5938 360.007 64.3649 360.276 64.2789C360.512 64.2033 360.766 64.2033 361.002 64.2789C361.27 64.3649 361.504 64.5938 361.972 65.0517L362.196 65.2718C362.398 65.4698 362.5 65.5687 362.617 65.6399C362.721 65.703 362.834 65.7498 362.952 65.7787C363.085 65.8113 363.226 65.8127 363.509 65.8157L363.824 65.8189C364.478 65.8257 364.805 65.8291 365.056 65.9581C365.276 66.0716 365.456 66.2512 365.57 66.4717C365.699 66.7223 365.702 67.0495 365.709 67.7037L365.712 68.0183C365.715 68.3012 365.716 68.4426 365.749 68.5759C365.778 68.694 365.825 68.807 365.888 68.9109C365.959 69.0282 366.058 69.1292 366.256 69.3313L366.476 69.5561C366.934 70.0235 367.163 70.2572 367.249 70.5257C367.324 70.7619 367.324 71.0158 367.249 71.252C367.163 71.5204 366.934 71.7542 366.476 72.2216L366.256 72.4464C366.058 72.6485 365.959 72.7495 365.888 72.8667C365.825 72.9707 365.778 73.0837 365.749 73.2018C365.716 73.335 365.715 73.4765 365.712 73.7593L365.709 74.0739C365.702 74.7282 365.699 75.0553 365.57 75.306C365.456 75.5265 365.276 75.706 365.056 75.8195C364.805 75.9486 364.478 75.952 363.824 75.9587L363.509 75.962C363.226 75.9649 363.085 75.9664 362.952 75.999C362.834 76.0279 362.721 76.0747 362.617 76.1378C362.5 76.2089 362.398 76.3079 362.196 76.5059L361.972 76.726C361.504 77.1838 361.27 77.4128 361.002 77.4988C360.766 77.5744 360.512 77.5744 360.276 77.4988C360.007 77.4128 359.774 77.1838 359.306 76.726L359.081 76.5059C358.879 76.3079 358.778 76.2089 358.661 76.1378C358.557 76.0747 358.444 76.0279 358.326 75.999C358.193 75.9664 358.051 75.9649 357.768 75.962L357.454 75.9587C356.799 75.952 356.472 75.9486 356.222 75.8195C356.001 75.706 355.822 75.5265 355.708 75.306C355.579 75.0553 355.576 74.7282 355.569 74.0739L355.566 73.7593C355.563 73.4765 355.561 73.335 355.529 73.2018C355.5 73.0837 355.453 72.9707 355.39 72.8667C355.319 72.7495 355.22 72.6485 355.022 72.4464L354.802 72.2216C354.344 71.7542 354.115 71.5204 354.029 71.252C353.953 71.0158 353.953 70.7619 354.029 70.5257C354.115 70.2572 354.344 70.0235 354.802 69.5561L355.022 69.3313C355.22 69.1292 355.319 69.0282 355.39 68.9109C355.453 68.807 355.5 68.694 355.529 68.5759C355.561 68.4426 355.563 68.3012 355.566 68.0183L355.569 67.7037C355.576 67.0495 355.579 66.7223 355.708 66.4717C355.822 66.2512 356.001 66.0716 356.222 65.9581C356.472 65.8291 356.799 65.8257 357.454 65.8189L357.768 65.8157C358.051 65.8127 358.193 65.8113 358.326 65.7787C358.444 65.7498 358.557 65.703 358.661 65.6399C358.778 65.5687 358.879 65.4698 359.081 65.2718L359.306 65.0517Z" stroke="#394912" stroke-width="1.5" stroke-linecap="round" stroke-linejoin="round"/>
<path d="M359.891 70.8889C359.891 70.4798 360.23 70.1481 360.639 70.1481C361.048 70.1481 361.387 70.4798 361.387 70.8889C361.387 71.298 361.048 71.6296 360.639 71.6296C360.23 71.6296 359.891 71.298 359.891 70.8889Z" stroke="#394912" stroke-width="1.5" stroke-linecap="round" stroke-linejoin="round"/>
</g>
</g>
<defs>
<filter id="filter0_ddi_2_12965" x="142.824" y="58.037" width="47.6297" height="47.6297" filterUnits="userSpaceOnUse" color-interpolation-filters="sRGB">
<feFlood flood-opacity="0" result="BackgroundImageFix"/>
<feColorMatrix in="SourceAlpha" type="matrix" values="0 0 0 0 0 0 0 0 0 0 0 0 0 0 0 0 0 0 127 0" result="hardAlpha"/>
<feMorphology radius="0.740741" operator="dilate" in="SourceAlpha" result="effect1_dropShadow_2_12965"/>
<feOffset/>
<feComposite in2="hardAlpha" operator="out"/>
<feColorMatrix type="matrix" values="0 0 0 0 0.0156863 0 0 0 0 0.0784314 0 0 0 0 0.211765 0 0 0 0.1 0"/>
<feBlend mode="normal" in2="BackgroundImageFix" result="effect1_dropShadow_2_12965"/>
<feColorMatrix in="SourceAlpha" type="matrix" values="0 0 0 0 0 0 0 0 0 0 0 0 0 0 0 0 0 0 127 0" result="hardAlpha"/>
<feOffset dy="2.96296"/>
<feGaussianBlur stdDeviation="2.96296"/>
<feComposite in2="hardAlpha" operator="out"/>
<feColorMatrix type="matrix" values="0 0 0 0 0.0156863 0 0 0 0 0.0784314 0 0 0 0 0.211765 0 0 0 0.08 0"/>
<feBlend mode="normal" in2="effect1_dropShadow_2_12965" result="effect2_dropShadow_2_12965"/>
<feBlend mode="normal" in="SourceGraphic" in2="effect2_dropShadow_2_12965" result="shape"/>
<feColorMatrix in="SourceAlpha" type="matrix" values="0 0 0 0 0 0 0 0 0 0 0 0 0 0 0 0 0 0 127 0" result="hardAlpha"/>
<feOffset dy="-2.22222"/>
<feComposite in2="hardAlpha" operator="arithmetic" k2="-1" k3="1"/>
<feColorMatrix type="matrix" values="0 0 0 0 0.0156863 0 0 0 0 0.0784314 0 0 0 0 0.211765 0 0 0 0.08 0"/>
<feBlend mode="normal" in2="shape" result="effect3_innerShadow_2_12965"/>
</filter>
<filter id="filter1_ddi_2_12965" x="223.824" y="58.037" width="47.6297" height="47.6297" filterUnits="userSpaceOnUse" color-interpolation-filters="sRGB">
<feFlood flood-opacity="0" result="BackgroundImageFix"/>
<feColorMatrix in="SourceAlpha" type="matrix" values="0 0 0 0 0 0 0 0 0 0 0 0 0 0 0 0 0 0 127 0" result="hardAlpha"/>
<feMorphology radius="0.740741" operator="dilate" in="SourceAlpha" result="effect1_dropShadow_2_12965"/>
<feOffset/>
<feComposite in2="hardAlpha" operator="out"/>
<feColorMatrix type="matrix" values="0 0 0 0 0.0156863 0 0 0 0 0.0784314 0 0 0 0 0.211765 0 0 0 0.1 0"/>
<feBlend mode="normal" in2="BackgroundImageFix" result="effect1_dropShadow_2_12965"/>
<feColorMatrix in="SourceAlpha" type="matrix" values="0 0 0 0 0 0 0 0 0 0 0 0 0 0 0 0 0 0 127 0" result="hardAlpha"/>
<feOffset dy="2.96296"/>
<feGaussianBlur stdDeviation="2.96296"/>
<feComposite in2="hardAlpha" operator="out"/>
<feColorMatrix type="matrix" values="0 0 0 0 0.0156863 0 0 0 0 0.0784314 0 0 0 0 0.211765 0 0 0 0.08 0"/>
<feBlend mode="normal" in2="effect1_dropShadow_2_12965" result="effect2_dropShadow_2_12965"/>
<feBlend mode="normal" in="SourceGraphic" in2="effect2_dropShadow_2_12965" result="shape"/>
<feColorMatrix in="SourceAlpha" type="matrix" values="0 0 0 0 0 0 0 0 0 0 0 0 0 0 0 0 0 0 127 0" result="hardAlpha"/>
<feOffset dy="-2.22222"/>
<feComposite in2="hardAlpha" operator="arithmetic" k2="-1" k3="1"/>
<feColorMatrix type="matrix" values="0 0 0 0 0.0156863 0 0 0 0 0.0784314 0 0 0 0 0.211765 0 0 0 0.08 0"/>
<feBlend mode="normal" in2="shape" result="effect3_innerShadow_2_12965"/>
</filter>
<filter id="filter2_ddi_2_12965" x="146.824" y="147.037" width="47.6297" height="47.6297" filterUnits="userSpaceOnUse" color-interpolation-filters="sRGB">
<feFlood flood-opacity="0" result="BackgroundImageFix"/>
<feColorMatrix in="SourceAlpha" type="matrix" values="0 0 0 0 0 0 0 0 0 0 0 0 0 0 0 0 0 0 127 0" result="hardAlpha"/>
<feMorphology radius="0.740741" operator="dilate" in="SourceAlpha" result="effect1_dropShadow_2_12965"/>
<feOffset/>
<feComposite in2="hardAlpha" operator="out"/>
<feColorMatrix type="matrix" values="0 0 0 0 0.0156863 0 0 0 0 0.0784314 0 0 0 0 0.211765 0 0 0 0.1 0"/>
<feBlend mode="normal" in2="BackgroundImageFix" result="effect1_dropShadow_2_12965"/>
<feColorMatrix in="SourceAlpha" type="matrix" values="0 0 0 0 0 0 0 0 0 0 0 0 0 0 0 0 0 0 127 0" result="hardAlpha"/>
<feOffset dy="2.96296"/>
<feGaussianBlur stdDeviation="2.96296"/>
<feComposite in2="hardAlpha" operator="out"/>
<feColorMatrix type="matrix" values="0 0 0 0 0.0156863 0 0 0 0 0.0784314 0 0 0 0 0.211765 0 0 0 0.08 0"/>
<feBlend mode="normal" in2="effect1_dropShadow_2_12965" result="effect2_dropShadow_2_12965"/>
<feBlend mode="normal" in="SourceGraphic" in2="effect2_dropShadow_2_12965" result="shape"/>
<feColorMatrix in="SourceAlpha" type="matrix" values="0 0 0 0 0 0 0 0 0 0 0 0 0 0 0 0 0 0 127 0" result="hardAlpha"/>
<feOffset dy="-2.22222"/>
<feComposite in2="hardAlpha" operator="arithmetic" k2="-1" k3="1"/>
<feColorMatrix type="matrix" values="0 0 0 0 0.0156863 0 0 0 0 0.0784314 0 0 0 0 0.211765 0 0 0 0.08 0"/>
<feBlend mode="normal" in2="shape" result="effect3_innerShadow_2_12965"/>
</filter>
<filter id="filter3_ddi_2_12965" x="253.824" y="10.037" width="47.6297" height="47.6297" filterUnits="userSpaceOnUse" color-interpolation-filters="sRGB">
<feFlood flood-opacity="0" result="BackgroundImageFix"/>
<feColorMatrix in="SourceAlpha" type="matrix" values="0 0 0 0 0 0 0 0 0 0 0 0 0 0 0 0 0 0 127 0" result="hardAlpha"/>
<feMorphology radius="0.740741" operator="dilate" in="SourceAlpha" result="effect1_dropShadow_2_12965"/>
<feOffset/>
<feComposite in2="hardAlpha" operator="out"/>
<feColorMatrix type="matrix" values="0 0 0 0 0.0156863 0 0 0 0 0.0784314 0 0 0 0 0.211765 0 0 0 0.1 0"/>
<feBlend mode="normal" in2="BackgroundImageFix" result="effect1_dropShadow_2_12965"/>
<feColorMatrix in="SourceAlpha" type="matrix" values="0 0 0 0 0 0 0 0 0 0 0 0 0 0 0 0 0 0 127 0" result="hardAlpha"/>
<feOffset dy="2.96296"/>
<feGaussianBlur stdDeviation="2.96296"/>
<feComposite in2="hardAlpha" operator="out"/>
<feColorMatrix type="matrix" values="0 0 0 0 0.0156863 0 0 0 0 0.0784314 0 0 0 0 0.211765 0 0 0 0.08 0"/>
<feBlend mode="normal" in2="effect1_dropShadow_2_12965" result="effect2_dropShadow_2_12965"/>
<feBlend mode="normal" in="SourceGraphic" in2="effect2_dropShadow_2_12965" result="shape"/>
<feColorMatrix in="SourceAlpha" type="matrix" values="0 0 0 0 0 0 0 0 0 0 0 0 0 0 0 0 0 0 127 0" result="hardAlpha"/>
<feOffset dy="-2.22222"/>
<feComposite in2="hardAlpha" operator="arithmetic" k2="-1" k3="1"/>
<feColorMatrix type="matrix" values="0 0 0 0 0.0156863 0 0 0 0 0.0784314 0 0 0 0 0.211765 0 0 0 0.08 0"/>
<feBlend mode="normal" in2="shape" result="effect3_innerShadow_2_12965"/>
</filter>
<filter id="filter4_ddi_2_12965" x="10.8241" y="80.037" width="47.6297" height="47.6297" filterUnits="userSpaceOnUse" color-interpolation-filters="sRGB">
<feFlood flood-opacity="0" result="BackgroundImageFix"/>
<feColorMatrix in="SourceAlpha" type="matrix" values="0 0 0 0 0 0 0 0 0 0 0 0 0 0 0 0 0 0 127 0" result="hardAlpha"/>
<feMorphology radius="0.740741" operator="dilate" in="SourceAlpha" result="effect1_dropShadow_2_12965"/>
<feOffset/>
<feComposite in2="hardAlpha" operator="out"/>
<feColorMatrix type="matrix" values="0 0 0 0 0.0156863 0 0 0 0 0.0784314 0 0 0 0 0.211765 0 0 0 0.1 0"/>
<feBlend mode="normal" in2="BackgroundImageFix" result="effect1_dropShadow_2_12965"/>
<feColorMatrix in="SourceAlpha" type="matrix" values="0 0 0 0 0 0 0 0 0 0 0 0 0 0 0 0 0 0 127 0" result="hardAlpha"/>
<feOffset dy="2.96296"/>
<feGaussianBlur stdDeviation="2.96296"/>
<feComposite in2="hardAlpha" operator="out"/>
<feColorMatrix type="matrix" values="0 0 0 0 0.0156863 0 0 0 0 0.0784314 0 0 0 0 0.211765 0 0 0 0.08 0"/>
<feBlend mode="normal" in2="effect1_dropShadow_2_12965" result="effect2_dropShadow_2_12965"/>
<feBlend mode="normal" in="SourceGraphic" in2="effect2_dropShadow_2_12965" result="shape"/>
<feColorMatrix in="SourceAlpha" type="matrix" values="0 0 0 0 0 0 0 0 0 0 0 0 0 0 0 0 0 0 127 0" result="hardAlpha"/>
<feOffset dy="-2.22222"/>
<feComposite in2="hardAlpha" operator="arithmetic" k2="-1" k3="1"/>
<feColorMatrix type="matrix" values="0 0 0 0 0.0156863 0 0 0 0 0.0784314 0 0 0 0 0.211765 0 0 0 0.08 0"/>
<feBlend mode="normal" in2="shape" result="effect3_innerShadow_2_12965"/>
</filter>
<filter id="filter5_ddi_2_12965" x="336.824" y="50.037" width="47.6297" height="47.6297" filterUnits="userSpaceOnUse" color-interpolation-filters="sRGB">
<feFlood flood-opacity="0" result="BackgroundImageFix"/>
<feColorMatrix in="SourceAlpha" type="matrix" values="0 0 0 0 0 0 0 0 0 0 0 0 0 0 0 0 0 0 127 0" result="hardAlpha"/>
<feMorphology radius="0.740741" operator="dilate" in="SourceAlpha" result="effect1_dropShadow_2_12965"/>
<feOffset/>
<feComposite in2="hardAlpha" operator="out"/>
<feColorMatrix type="matrix" values="0 0 0 0 0.0156863 0 0 0 0 0.0784314 0 0 0 0 0.211765 0 0 0 0.1 0"/>
<feBlend mode="normal" in2="BackgroundImageFix" result="effect1_dropShadow_2_12965"/>
<feColorMatrix in="SourceAlpha" type="matrix" values="0 0 0 0 0 0 0 0 0 0 0 0 0 0 0 0 0 0 127 0" result="hardAlpha"/>
<feOffset dy="2.96296"/>
<feGaussianBlur stdDeviation="2.96296"/>
<feComposite in2="hardAlpha" operator="out"/>
<feColorMatrix type="matrix" values="0 0 0 0 0.0156863 0 0 0 0 0.0784314 0 0 0 0 0.211765 0 0 0 0.08 0"/>
<feBlend mode="normal" in2="effect1_dropShadow_2_12965" result="effect2_dropShadow_2_12965"/>
<feBlend mode="normal" in="SourceGraphic" in2="effect2_dropShadow_2_12965" result="shape"/>
<feColorMatrix in="SourceAlpha" type="matrix" values="0 0 0 0 0 0 0 0 0 0 0 0 0 0 0 0 0 0 127 0" result="hardAlpha"/>
<feOffset dy="-2.22222"/>
<feComposite in2="hardAlpha" operator="arithmetic" k2="-1" k3="1"/>
<feColorMatrix type="matrix" values="0 0 0 0 0.0156863 0 0 0 0 0.0784314 0 0 0 0 0.211765 0 0 0 0.08 0"/>
<feBlend mode="normal" in2="shape" result="effect3_innerShadow_2_12965"/>
</filter>
<linearGradient id="paint0_linear_2_12965" x1="171.25" y1="0" x2="171.25" y2="202.5" gradientUnits="userSpaceOnUse">
<stop stop-color="white" stop-opacity="0"/>
<stop offset="0.165" stop-color="white"/>
<stop offset="0.545" stop-color="white"/>
<stop offset="0.815" stop-color="white"/>
<stop offset="1" stop-color="white" stop-opacity="0"/>
</linearGradient>
<linearGradient id="paint1_linear_2_12965" x1="40.2354" y1="96.3598" x2="258.25" y2="86.5" gradientUnits="userSpaceOnUse">
<stop stop-color="white" stop-opacity="0"/>
<stop offset="0.165" stop-color="white"/>
<stop offset="0.545" stop-color="white"/>
<stop offset="0.815" stop-color="white"/>
<stop offset="1" stop-color="white" stop-opacity="0"/>
</linearGradient>
<linearGradient id="paint2_linear_2_12965" x1="295.25" y1="40.5" x2="219.75" y2="292" gradientUnits="userSpaceOnUse">
<stop stop-color="white" stop-opacity="0"/>
<stop offset="0.165" stop-color="white"/>
<stop offset="0.545" stop-color="white"/>
<stop offset="0.815" stop-color="white"/>
<stop offset="1" stop-color="white" stop-opacity="0"/>
</linearGradient>
<linearGradient id="paint3_linear_2_12965" x1="188.75" y1="99.75" x2="260.25" y2="99.75" gradientUnits="userSpaceOnUse">
<stop stop-color="white" stop-opacity="0"/>
<stop offset="0.165" stop-color="white"/>
<stop offset="0.545" stop-color="white"/>
<stop offset="0.815" stop-color="white"/>
<stop offset="1" stop-color="white" stop-opacity="0"/>
</linearGradient>
<linearGradient id="paint4_linear_2_12965" x1="343.75" y1="31" x2="343.75" y2="71" gradientUnits="userSpaceOnUse">
<stop stop-color="white" stop-opacity="0"/>
<stop offset="0.165" stop-color="white"/>
<stop offset="0.545" stop-color="white"/>
<stop offset="0.815" stop-color="white"/>
<stop offset="1" stop-color="white" stop-opacity="0"/>
</linearGradient>
<linearGradient id="paint5_linear_2_12965" x1="148.75" y1="61" x2="184.528" y2="96.7778" gradientUnits="userSpaceOnUse">
<stop stop-color="#B9FF3E"/>
<stop offset="1" stop-color="#ABE93D"/>
</linearGradient>
<linearGradient id="paint6_linear_2_12965" x1="229.75" y1="61" x2="265.528" y2="96.7778" gradientUnits="userSpaceOnUse">
<stop stop-color="#B9FF3E"/>
<stop offset="1" stop-color="#ABE93D"/>
</linearGradient>
<linearGradient id="paint7_linear_2_12965" x1="152.75" y1="150" x2="188.528" y2="185.778" gradientUnits="userSpaceOnUse">
<stop stop-color="#B9FF3E"/>
<stop offset="1" stop-color="#ABE93D"/>
</linearGradient>
<linearGradient id="paint8_linear_2_12965" x1="259.75" y1="13" x2="295.528" y2="48.7778" gradientUnits="userSpaceOnUse">
<stop stop-color="#B9FF3E"/>
<stop offset="1" stop-color="#ABE93D"/>
</linearGradient>
<linearGradient id="paint9_linear_2_12965" x1="16.75" y1="83" x2="52.5278" y2="118.778" gradientUnits="userSpaceOnUse">
<stop stop-color="#B9FF3E"/>
<stop offset="1" stop-color="#ABE93D"/>
</linearGradient>
<linearGradient id="paint10_linear_2_12965" x1="342.75" y1="53" x2="378.528" y2="88.7778" gradientUnits="userSpaceOnUse">
<stop stop-color="#B9FF3E"/>
<stop offset="1" stop-color="#ABE93D"/>
</linearGradient>
<clipPath id="clip0_2_12965">
<rect width="391.5" height="202.5" fill="white" transform="translate(0.25)"/>
</clipPath>
</defs>
</svg>
