<svg width="527" height="564" viewBox="0 0 527 564" fill="none" xmlns="http://www.w3.org/2000/svg">
<g clip-path="url(#clip0_10_15077)">
<path d="M526.424 285.855C526.424 176.366 370.413 90.8308 260.924 90.8308C151.435 90.8308 62.6774 179.588 62.6774 289.077C62.6774 398.566 159.797 563.179 269.286 563.179C378.774 563.179 526.424 395.344 526.424 285.868V285.855Z" stroke="white" stroke-width="0.372819" stroke-miterlimit="10" stroke-linecap="round" stroke-dasharray="2.08 2.08 2.08 2.08 2.08 2.08"/>
<path d="M524.573 285.908C524.573 176.712 369.84 89.0464 260.658 89.0464C151.475 89.0464 61.0266 180.64 61.5059 292.312C61.7056 401.495 158.599 556.481 267.781 556.481C376.964 556.481 524.573 395.09 524.573 285.895V285.908Z" stroke="white" stroke-width="0.372819" stroke-miterlimit="10" stroke-linecap="round" stroke-dasharray="2.08 2.08 2.08 2.08 2.08 2.08"/>
<path d="M522.709 285.975C522.709 177.085 369.267 87.2888 260.364 87.2888C151.462 87.2888 59.615 181.718 60.3074 295.588C60.9731 404.464 157.36 549.824 266.25 549.824C375.139 549.824 522.696 394.864 522.696 285.961L522.709 285.975Z" stroke="white" stroke-width="0.372819" stroke-miterlimit="10" stroke-linecap="round" stroke-dasharray="2.06 2.06 2.06 2.06 2.06 2.06"/>
<path d="M520.858 286.041C520.858 177.444 368.695 85.5312 260.098 85.5312C151.502 85.5312 58.084 182.797 59.1359 298.863C60.1212 407.433 156.149 543.179 264.745 543.179C373.342 543.179 520.858 394.651 520.858 286.054V286.041Z" stroke="white" stroke-width="0.372819" stroke-miterlimit="10" stroke-linecap="round" stroke-dasharray="2.08 2.08 2.08 2.08 2.08 2.08"/>
<path d="M519.007 286.108C519.007 177.804 368.135 83.7737 259.831 83.7737C151.528 83.7737 56.552 183.862 57.9634 302.139C59.2549 410.389 154.936 536.522 263.24 536.522C371.544 536.522 519.007 394.425 519.007 286.121V286.108Z" stroke="white" stroke-width="0.372819" stroke-miterlimit="10" stroke-linecap="round" stroke-dasharray="2.08 2.08 2.08 2.08 2.08 2.08"/>
<path d="M517.156 286.161C517.156 178.15 367.576 81.9893 259.565 81.9893C151.554 81.9893 55.021 184.914 56.7919 305.387C58.3764 413.332 153.725 529.838 261.735 529.838C369.746 529.838 517.156 394.172 517.156 286.161Z" stroke="white" stroke-width="0.372819" stroke-miterlimit="10" stroke-linecap="round" stroke-dasharray="2.06 2.06 2.06 2.06 2.06 2.06"/>
<path d="M515.307 286.227C515.307 178.51 367.005 80.2319 259.287 80.2319C151.569 80.2319 53.4643 185.993 55.608 308.65C57.4854 416.288 152.501 523.167 260.219 523.167C367.937 523.167 515.307 393.932 515.307 286.214V286.227Z" stroke="white" stroke-width="0.372819" stroke-miterlimit="10" stroke-linecap="round" stroke-dasharray="2.08 2.08 2.08 2.08 2.08 2.08"/>
<path d="M513.441 286.294C513.441 178.869 366.431 78.4744 259.006 78.4744C151.581 78.4744 51.9053 187.071 54.4219 311.925C56.5922 419.257 151.275 516.51 258.7 516.51C366.125 516.51 513.441 393.706 513.441 286.294Z" stroke="white" stroke-width="0.372819" stroke-miterlimit="10" stroke-linecap="round" stroke-dasharray="2.09 2.09 2.09 2.09 2.09 2.09"/>
<path d="M511.592 286.347C511.592 179.229 365.86 76.7034 258.741 76.7034C151.622 76.7034 50.3487 188.123 53.2513 315.187C55.688 422.213 150.078 509.852 257.196 509.852C364.315 509.852 511.592 393.479 511.592 286.361V286.347Z" stroke="white" stroke-width="0.372819" stroke-miterlimit="10" stroke-linecap="round" stroke-dasharray="2.08 2.08 2.08 2.08 2.08 2.08"/>
<path d="M509.741 286.414C509.741 179.588 365.3 74.9326 258.474 74.9326C151.648 74.9326 48.7904 189.188 52.0792 318.45C54.7821 425.156 148.865 503.181 255.691 503.181C362.517 503.181 509.754 393.253 509.754 286.414H509.741Z" stroke="white" stroke-width="0.372819" stroke-miterlimit="10" stroke-linecap="round" stroke-dasharray="2.08 2.08 2.08 2.08 2.08 2.08"/>
<path d="M507.89 286.481C507.89 179.948 364.727 73.175 258.194 73.175C151.661 73.175 47.2191 190.253 50.894 321.712C53.8632 428.112 147.64 496.511 254.173 496.511C360.706 496.511 507.89 393.013 507.89 286.481Z" stroke="white" stroke-width="0.372819" stroke-miterlimit="10" stroke-linecap="round" stroke-dasharray="2.08 2.08 2.08 2.08 2.08 2.08"/>
<path d="M506.038 286.547C506.038 180.307 364.167 71.4175 257.927 71.4175C151.687 71.4175 45.6472 191.332 49.7216 324.987C52.9438 431.081 146.428 489.853 252.668 489.853C358.908 489.853 506.038 392.787 506.038 286.547Z" stroke="white" stroke-width="0.372819" stroke-miterlimit="10" stroke-linecap="round" stroke-dasharray="2.08 2.08 2.08 2.08 2.08 2.08"/>
<path d="M504.187 286.6C504.187 180.653 363.608 69.6465 257.661 69.6465C151.714 69.6465 44.0755 192.384 48.5494 328.249C52.0246 434.023 145.216 483.182 251.163 483.182C357.11 483.182 504.2 392.547 504.2 286.6H504.187Z" stroke="white" stroke-width="0.372819" stroke-miterlimit="10" stroke-linecap="round" stroke-dasharray="2.08 2.08 2.08 2.08 2.08 2.08"/>
<path d="M502.324 286.667C502.324 181.013 363.022 67.8757 257.382 67.8757C151.741 67.8757 42.4917 193.449 47.365 331.512C51.0799 436.979 143.992 476.525 249.646 476.525C355.3 476.525 502.337 392.321 502.337 286.667H502.324Z" stroke="white" stroke-width="0.372819" stroke-miterlimit="10" stroke-linecap="round" stroke-dasharray="2.08 2.08 2.08 2.08 2.08 2.08"/>
<path d="M500.473 286.733C500.473 181.372 362.463 66.1182 257.102 66.1182C151.741 66.1182 40.8938 194.528 46.1798 334.787C50.1344 439.949 142.78 469.867 248.128 469.867C353.476 469.867 500.473 392.095 500.473 286.747V286.733Z" stroke="white" stroke-width="0.372819" stroke-miterlimit="10" stroke-linecap="round" stroke-dasharray="2.08 2.08 2.08 2.08 2.08 2.08"/>
<path d="M498.622 286.8C498.622 181.745 361.891 64.3604 256.836 64.3604C151.781 64.3604 39.3095 195.592 44.995 338.049C49.1892 442.904 141.555 463.196 246.61 463.196C351.665 463.196 498.609 391.855 498.609 286.8H498.622Z" stroke="white" stroke-width="0.372819" stroke-miterlimit="10" stroke-linecap="round" stroke-dasharray="2.09 2.09 2.09 2.09 2.09 2.09"/>
<path d="M496.772 286.853C496.772 182.091 361.333 62.5762 256.571 62.5762C151.809 62.5762 37.7129 196.644 43.8244 341.298C48.245 445.834 140.345 456.512 245.107 456.512C349.869 456.512 496.772 391.602 496.772 286.84V286.853Z" stroke="white" stroke-width="0.372819" stroke-miterlimit="10" stroke-linecap="round" stroke-dasharray="2.08 2.08 2.08 2.08 2.08 2.08"/>
<path d="M494.921 286.92C494.921 182.451 360.76 60.8188 256.29 60.8188C151.821 60.8188 36.1012 197.71 42.6388 344.574C47.2857 448.803 139.119 449.855 243.588 449.855C348.057 449.855 494.908 391.389 494.908 286.92H494.921Z" stroke="white" stroke-width="0.372819" stroke-miterlimit="10" stroke-linecap="round" stroke-dasharray="2.08 2.08 2.08 2.08 2.08 2.08"/>
<path d="M493.07 286.986C493.07 182.81 360.2 59.061 256.024 59.061C151.848 59.061 34.5036 198.788 41.4673 347.849C46.3272 451.772 137.907 443.211 242.084 443.211C346.26 443.211 493.057 391.176 493.057 287L493.07 286.986Z" stroke="white" stroke-width="0.372819" stroke-miterlimit="10" stroke-linecap="round" stroke-dasharray="2.09 2.09 2.09 2.09 2.09 2.09"/>
<path d="M491.205 287.053C491.205 183.17 359.627 57.3037 255.744 57.3037C151.86 57.3037 32.878 199.854 40.2811 351.111C45.3541 454.728 136.681 436.54 240.564 436.54C344.448 436.54 491.205 390.936 491.205 287.053Z" stroke="white" stroke-width="0.372819" stroke-miterlimit="10" stroke-linecap="round" stroke-dasharray="2.08 2.08 2.08 2.08 2.08 2.08"/>
<path d="M489.355 287.106C489.355 183.516 359.055 55.5195 255.478 55.5195C151.901 55.5195 31.2546 200.905 39.1105 354.36C44.3965 457.658 135.471 429.856 239.061 429.856C342.651 429.856 489.355 390.683 489.355 287.093V287.106Z" stroke="white" stroke-width="0.372819" stroke-miterlimit="10" stroke-linecap="round" stroke-dasharray="2.08 2.08 2.08 2.08 2.08 2.08"/>
<path d="M487.504 287.173C487.504 183.889 358.495 53.7617 255.198 53.7617C151.9 53.7617 29.6294 201.97 37.9246 357.635C43.4237 460.627 134.258 423.198 237.542 423.198C340.826 423.198 487.491 390.457 487.491 287.173H487.504Z" stroke="white" stroke-width="0.372819" stroke-miterlimit="10" stroke-linecap="round" stroke-dasharray="2.08 2.08 2.08 2.08 2.08 2.08"/>
<path d="M485.653 287.239C485.653 184.248 357.923 52.0042 254.932 52.0042C151.941 52.0042 28.0052 203.049 36.7531 360.911C42.4519 463.596 133.047 416.541 236.038 416.541C339.029 416.541 485.653 390.23 485.653 287.239Z" stroke="white" stroke-width="0.372819" stroke-miterlimit="10" stroke-linecap="round" stroke-dasharray="2.08 2.08 2.08 2.08 2.08 2.08"/>
<path d="M483.803 287.293C483.803 184.595 357.364 50.2334 254.666 50.2334C151.968 50.2334 26.3676 204.114 35.5816 364.16C41.4801 466.539 131.835 409.87 234.534 409.87C337.232 409.87 483.803 389.991 483.803 287.293Z" stroke="white" stroke-width="0.372819" stroke-miterlimit="10" stroke-linecap="round" stroke-dasharray="2.08 2.08 2.08 2.08 2.08 2.08"/>
<path d="M481.938 287.359C481.938 184.954 356.791 48.4624 254.386 48.4624C151.981 48.4624 24.7164 205.166 34.3964 367.422C40.4813 469.494 130.61 403.199 233.016 403.199C335.421 403.199 481.938 389.765 481.938 287.359Z" stroke="white" stroke-width="0.372819" stroke-miterlimit="10" stroke-linecap="round" stroke-dasharray="2.08 2.08 2.08 2.08 2.08 2.08"/>
<path d="M480.088 287.426C480.088 185.313 356.219 46.7048 254.107 46.7048C151.994 46.7048 23.0656 206.245 33.2116 370.698C39.4962 472.464 129.386 396.542 231.498 396.542C333.61 396.542 480.088 389.538 480.088 287.426Z" stroke="white" stroke-width="0.372819" stroke-miterlimit="10" stroke-linecap="round" stroke-dasharray="2.08 2.08 2.08 2.08 2.08 2.08"/>
<path d="M478.236 287.492C478.236 185.673 355.659 44.9473 253.84 44.9473C152.02 44.9473 21.4138 207.323 32.0391 373.973C38.5102 475.42 128.173 389.884 229.993 389.884C331.812 389.884 478.236 389.312 478.236 287.492Z" stroke="white" stroke-width="0.372819" stroke-miterlimit="10" stroke-linecap="round" stroke-dasharray="2.08 2.08 2.08 2.08 2.08 2.08"/>
<path d="M476.386 287.545C476.386 186.032 355.087 43.1763 253.573 43.1763C152.06 43.1763 19.7496 208.375 30.8676 377.235C37.525 478.375 126.975 383.214 228.488 383.214C330.001 383.214 476.386 389.072 476.386 287.559V287.545Z" stroke="white" stroke-width="0.372819" stroke-miterlimit="10" stroke-linecap="round" stroke-dasharray="2.08 2.08 2.08 2.08 2.08 2.08"/>
<path d="M474.536 287.612C474.536 186.392 354.528 41.4055 253.308 41.4055C152.087 41.4055 18.0989 209.44 29.6962 380.484C36.5401 481.318 125.764 376.543 226.984 376.543C328.204 376.543 474.549 388.832 474.549 287.612H474.536Z" stroke="white" stroke-width="0.372819" stroke-miterlimit="10" stroke-linecap="round" stroke-dasharray="2.09 2.09 2.09 2.09 2.09 2.09"/>
<path d="M472.685 287.679C472.685 186.752 353.955 39.6479 253.028 39.6479C152.1 39.6479 16.4211 210.519 28.5111 383.759C35.5281 484.287 124.539 369.885 225.466 369.885C326.393 369.885 472.685 388.606 472.685 287.679Z" stroke="white" stroke-width="0.372819" stroke-miterlimit="10" stroke-linecap="round" stroke-dasharray="2.06 2.06 2.06 2.06 2.06 2.06"/>
<path d="M470.821 287.746C470.821 187.111 353.383 37.8906 252.749 37.8906C152.115 37.8906 14.7311 211.598 27.327 387.035C34.5171 487.257 123.314 363.228 223.949 363.228C324.583 363.228 470.821 388.38 470.821 287.746Z" stroke="white" stroke-width="0.372819" stroke-miterlimit="10" stroke-linecap="round" stroke-dasharray="2.08 2.08 2.08 2.08 2.08 2.08"/>
<path d="M468.97 287.799C468.97 187.457 352.824 36.1194 252.482 36.1194C152.141 36.1194 13.053 212.662 26.1549 390.297C33.518 490.212 122.102 356.557 222.444 356.557C322.785 356.557 468.983 388.14 468.983 287.812L468.97 287.799Z" stroke="white" stroke-width="0.372819" stroke-miterlimit="10" stroke-linecap="round" stroke-dasharray="2.08 2.08 2.08 2.08 2.08 2.08"/>
<path d="M467.119 287.865C467.119 187.817 352.25 34.3484 252.215 34.3484C152.18 34.3484 11.3612 213.727 24.9824 393.546C32.5186 493.155 120.89 349.873 220.938 349.873C320.987 349.873 467.132 387.9 467.132 287.852L467.119 287.865Z" stroke="white" stroke-width="0.372819" stroke-miterlimit="10" stroke-linecap="round" stroke-dasharray="2.08 2.08 2.08 2.08 2.08 2.08"/>
<path d="M465.269 287.932C465.269 188.19 351.692 32.5911 251.936 32.5911C152.181 32.5911 9.65769 214.806 23.7849 396.821C31.4942 496.124 119.652 343.229 219.408 343.229C319.164 343.229 465.255 387.687 465.255 287.932H465.269Z" stroke="white" stroke-width="0.372819" stroke-miterlimit="10" stroke-linecap="round" stroke-dasharray="2.08 2.08 2.08 2.08 2.08 2.08"/>
<path d="M463.417 287.998C463.417 188.549 351.119 30.8335 251.669 30.8335C152.22 30.8335 7.96592 215.885 22.6124 400.097C30.4815 499.094 118.453 336.571 217.903 336.571C317.352 336.571 463.417 387.461 463.417 288.012V287.998Z" stroke="white" stroke-width="0.372819" stroke-miterlimit="10" stroke-linecap="round" stroke-dasharray="2.08 2.08 2.08 2.08 2.08 2.08"/>
<path d="M461.554 288.051C461.554 188.895 350.547 29.0491 251.39 29.0491C152.234 29.0491 6.24896 216.936 21.428 403.346C29.4702 502.036 117.229 329.887 216.386 329.887C315.542 329.887 461.554 387.208 461.554 288.051Z" stroke="white" stroke-width="0.372819" stroke-miterlimit="10" stroke-linecap="round" stroke-dasharray="2.08 2.08 2.08 2.08 2.08 2.08"/>
<path d="M459.702 288.118C459.702 189.255 349.974 27.2917 251.123 27.2917C152.273 27.2917 4.53055 218.015 20.2555 406.621C28.4575 505.006 116.017 323.23 214.88 323.23C313.744 323.23 459.702 386.982 459.702 288.118Z" stroke="white" stroke-width="0.372819" stroke-miterlimit="10" stroke-linecap="round" stroke-dasharray="2.08 2.08 2.08 2.08 2.08 2.08"/>
<path d="M457.852 288.185C457.852 189.614 349.415 25.5342 250.844 25.5342C152.274 25.5342 2.81312 219.094 19.0707 409.883C27.4325 507.961 114.792 316.559 213.362 316.559C311.933 316.559 457.852 386.742 457.852 288.172V288.185Z" stroke="white" stroke-width="0.372819" stroke-miterlimit="10" stroke-linecap="round" stroke-dasharray="2.06 2.06 2.06 2.06 2.06 2.06"/>
<path d="M456.002 288.238C456.002 189.96 348.857 23.7632 250.579 23.7632C152.301 23.7632 1.08336 220.172 17.9001 413.146C26.4217 510.931 113.581 309.901 211.859 309.901C310.137 309.901 456.002 386.516 456.002 288.251V288.238Z" stroke="white" stroke-width="0.372819" stroke-miterlimit="10" stroke-linecap="round" stroke-dasharray="2.08 2.08 2.08 2.08 2.08 2.08"/>
<path d="M454.15 288.305C454.15 190.333 348.283 21.9922 250.312 21.9922C152.341 21.9922 -0.648317 221.237 16.7277 416.408C25.409 513.886 112.369 303.231 210.354 303.231C308.338 303.231 454.15 386.276 454.15 288.305Z" stroke="white" stroke-width="0.372819" stroke-miterlimit="10" stroke-linecap="round" stroke-dasharray="2.08 2.08 2.08 2.08 2.08 2.08"/>
<path d="M452.299 288.371C452.299 190.693 347.724 20.2349 250.045 20.2349C152.367 20.2349 -2.37973 222.329 15.5555 419.683C24.3833 516.856 111.17 296.573 208.849 296.573C306.527 296.573 452.312 386.063 452.312 288.371H452.299Z" stroke="white" stroke-width="0.372819" stroke-miterlimit="10" stroke-linecap="round" stroke-dasharray="2.08 2.08 2.08 2.08 2.08 2.08"/>
<path d="M450.435 288.438C450.435 191.052 347.137 18.4771 249.752 18.4771C152.366 18.4771 -4.15113 223.407 14.3567 422.945C23.3442 519.812 109.931 289.902 207.317 289.902C304.702 289.902 450.435 385.823 450.435 288.438Z" stroke="white" stroke-width="0.372819" stroke-miterlimit="10" stroke-linecap="round" stroke-dasharray="2.06 2.06 2.06 2.06 2.06 2.06"/>
<path d="M448.585 288.491C448.585 191.398 346.579 16.7061 249.486 16.7061C152.394 16.7061 -5.8942 224.486 13.1861 426.207C22.3202 522.767 108.721 283.231 205.813 283.231C302.906 283.231 448.585 385.583 448.585 288.491Z" stroke="white" stroke-width="0.372819" stroke-miterlimit="10" stroke-linecap="round" stroke-dasharray="2.09 2.09 2.09 2.09 2.09 2.09"/>
<path d="M446.734 288.558C446.734 191.758 346.019 14.9355 249.22 14.9355C152.42 14.9355 -7.65216 225.551 12.014 429.47C21.2945 525.737 107.509 276.574 204.308 276.574C301.108 276.574 446.747 385.357 446.747 288.558H446.734Z" stroke="white" stroke-width="0.372819" stroke-miterlimit="10" stroke-linecap="round" stroke-dasharray="2.08 2.08 2.08 2.08 2.08 2.08"/>
<path d="M444.883 288.624C444.883 192.117 345.447 13.1777 248.94 13.1777C152.433 13.1777 -9.42324 226.643 10.8288 432.745C20.2558 528.706 106.284 269.917 202.79 269.917C299.297 269.917 444.883 385.131 444.883 288.624Z" stroke="white" stroke-width="0.372819" stroke-miterlimit="10" stroke-linecap="round" stroke-dasharray="2.08 2.08 2.08 2.08 2.08 2.08"/>
<path d="M443.032 288.691C443.032 192.49 344.888 11.4202 248.674 11.4202C152.46 11.4202 -11.1939 227.735 9.65728 436.021C19.2307 531.675 105.072 263.259 201.286 263.259C297.5 263.259 443.032 384.904 443.032 288.704V288.691Z" stroke="white" stroke-width="0.372819" stroke-miterlimit="10" stroke-linecap="round" stroke-dasharray="2.08 2.08 2.08 2.08 2.08 2.08"/>
<path d="M441.182 288.744C441.182 192.836 344.316 9.64941 248.408 9.64941C152.501 9.64941 -12.9643 228.814 8.48612 439.27C18.206 534.631 103.861 256.575 199.782 256.575C295.703 256.575 441.195 384.652 441.195 288.744H441.182Z" stroke="white" stroke-width="0.372819" stroke-miterlimit="10" stroke-linecap="round" stroke-dasharray="2.08 2.08 2.08 2.08 2.08 2.08"/>
<path d="M439.317 288.811C439.317 193.196 343.742 7.87842 248.127 7.87842C152.513 7.87842 -14.7629 229.892 7.29996 442.532C17.1663 537.587 102.648 249.904 198.263 249.904C293.878 249.904 439.33 384.412 439.33 288.797L439.317 288.811Z" stroke="white" stroke-width="0.372819" stroke-miterlimit="10" stroke-linecap="round" stroke-dasharray="2.08 2.08 2.08 2.08 2.08 2.08"/>
<path d="M437.466 288.877C437.466 193.555 343.169 6.12085 247.848 6.12085C152.526 6.12085 -16.5739 230.984 6.11478 445.807C16.1143 540.57 101.423 243.26 196.745 243.26C292.067 243.26 437.466 384.212 437.466 288.89V288.877Z" stroke="white" stroke-width="0.372819" stroke-miterlimit="10" stroke-linecap="round" stroke-dasharray="2.08 2.08 2.08 2.08 2.08 2.08"/>
<path d="M435.616 288.944C435.616 193.915 342.611 4.36328 247.582 4.36328C152.553 4.36328 -18.6771 232.102 4.94361 449.083C14.9565 543.552 100.212 236.603 195.241 236.603C290.27 236.603 435.629 383.986 435.629 288.957L435.616 288.944Z" stroke="white" stroke-width="0.372819" stroke-miterlimit="10" stroke-linecap="round" stroke-dasharray="2.08 2.08 2.08 2.08 2.08 2.08"/>
<path d="M433.765 288.997C433.765 194.261 342.052 2.5791 247.316 2.5791C152.58 2.5791 -20.328 233.154 3.7721 452.318C13.9847 546.481 99.0007 229.905 193.737 229.905C288.472 229.905 433.778 383.72 433.778 288.984L433.765 288.997Z" stroke="white" stroke-width="0.372819" stroke-miterlimit="10" stroke-linecap="round" stroke-dasharray="2.09 2.09 2.09 2.09 2.09 2.09"/>
<path d="M431.914 289.064C431.914 194.634 341.479 0.821533 247.049 0.821533C152.62 0.821533 -21.9793 234.233 2.58675 455.594C13.0124 549.451 97.7754 223.248 192.218 223.248C286.661 223.248 431.914 383.493 431.914 289.064Z" stroke="white" stroke-width="0.372819" stroke-miterlimit="10" stroke-linecap="round" stroke-dasharray="2.09 2.09 2.09 2.09 2.09 2.09"/>
</g>
<defs>
<clipPath id="clip0_10_15077">
<rect width="526.18" height="562.357" fill="white" transform="translate(0.244141 0.821533)"/>
</clipPath>
</defs>
</svg>
