<svg width="13" height="13" viewBox="0 0 13 13" fill="none" xmlns="http://www.w3.org/2000/svg">
<g clip-path="url(#clip0_2_3281)">
<path d="M4.47581 10.9029H8.72511C9.41443 10.9029 9.77269 10.5355 9.77269 9.79179V6.57647C9.77269 5.92343 9.49152 5.56063 8.94732 5.48807V4.40874C8.94732 2.73533 7.84078 1.86914 6.60272 1.86914C5.36467 1.86914 4.25813 2.73533 4.25813 4.40874V5.48807C3.71393 5.56063 3.42822 5.92343 3.42822 6.57647V9.79179C3.42822 10.5355 3.78649 10.9029 4.47581 10.9029ZM5.10617 4.32711C5.10617 3.26139 5.79096 2.68091 6.60272 2.68091C7.40995 2.68091 8.09928 3.26139 8.09928 4.32711V5.46993H5.10617V4.32711Z" fill="#2D3039" fill-opacity="0.6"/>
</g>
<defs>
<clipPath id="clip0_2_3281">
<rect width="11.8207" height="11.8207" fill="white" transform="translate(0.692383 0.490479)"/>
</clipPath>
</defs>
</svg>
