<svg width="60" height="64" viewBox="0 0 60 64" fill="none" xmlns="http://www.w3.org/2000/svg">
<g clip-path="url(#clip0_9_12986)">
<g filter="url(#filter0_d_9_12986)">
<rect y="4.33887" width="59.661" height="59.661" rx="8.67761" fill="#612B1F"/>
<rect width="60" height="60" rx="8.67761" fill="url(#paint0_linear_9_12986)"/>
<path d="M41.25 37.5C41.055 37.5 40.86 37.5 40.665 37.56L38.25 32.685C38.7844 32.164 39.1511 31.4954 39.3033 30.7647C39.4555 30.0341 39.3862 29.2746 39.1043 28.5836C38.8225 27.8925 38.3408 27.3013 37.7209 26.8856C37.1011 26.4699 36.3713 26.2486 35.625 26.25C35.43 26.25 35.25 26.25 35.04 26.31L32.595 21.435C33.315 20.76 33.75 19.815 33.75 18.75C33.75 17.7554 33.3549 16.8016 32.6516 16.0983C31.9484 15.3951 30.9946 15 30 15C29.0054 15 28.0516 15.3951 27.3483 16.0983C26.6451 16.8016 26.25 17.7554 26.25 18.75C26.25 19.815 26.685 20.76 27.39 21.435L24.96 26.31C24.75 26.25 24.57 26.25 24.375 26.25C23.6287 26.2486 22.8989 26.4699 22.2791 26.8856C21.6592 27.3013 21.1775 27.8925 20.8957 28.5836C20.6138 29.2746 20.5445 30.0341 20.6967 30.7647C20.8489 31.4954 21.2156 32.164 21.75 32.685L19.335 37.56C19.14 37.5 18.945 37.5 18.75 37.5C17.7554 37.5 16.8016 37.8951 16.0983 38.5984C15.3951 39.3016 15 40.2554 15 41.25C15 42.2446 15.3951 43.1984 16.0983 43.9016C16.8016 44.6049 17.7554 45 18.75 45C19.2425 45 19.7301 44.903 20.1851 44.7145C20.64 44.5261 21.0534 44.2499 21.4017 43.9016C21.7499 43.5534 22.0261 43.14 22.2145 42.6851C22.403 42.2301 22.5 41.7425 22.5 41.25C22.5 40.2 22.065 39.24 21.36 38.565L23.79 33.69C24 33.75 24.18 33.75 24.375 33.75C24.57 33.75 24.75 33.75 24.96 33.69L27.405 38.565C26.7 39.24 26.25 40.2 26.25 41.25C26.25 42.2446 26.6451 43.1984 27.3483 43.9016C28.0516 44.6049 29.0054 45 30 45C30.9946 45 31.9484 44.6049 32.6516 43.9016C33.3549 43.1984 33.75 42.2446 33.75 41.25C33.75 40.2554 33.3549 39.3016 32.6516 38.5984C31.9484 37.8951 30.9946 37.5 30 37.5C29.805 37.5 29.61 37.5 29.415 37.56L27 32.685C27.69 32.01 28.125 31.065 28.125 30C28.125 28.935 27.69 27.99 27 27.315L29.415 22.44C29.61 22.5 29.805 22.5 30 22.5C30.195 22.5 30.39 22.5 30.585 22.44L33 27.315C32.325 27.99 31.875 28.95 31.875 30C31.875 30.9946 32.2701 31.9484 32.9734 32.6516C33.6766 33.3549 34.6304 33.75 35.625 33.75C35.82 33.75 36 33.75 36.21 33.69L38.655 38.565C37.95 39.24 37.5 40.2 37.5 41.25C37.5 42.2446 37.8951 43.1984 38.5984 43.9016C39.3016 44.6049 40.2554 45 41.25 45C42.2446 45 43.1984 44.6049 43.9016 43.9016C44.6049 43.1984 45 42.2446 45 41.25C45 40.2554 44.6049 39.3016 43.9016 38.5984C43.1984 37.8951 42.2446 37.5 41.25 37.5Z" fill="white"/>
</g>
</g>
<defs>
<filter id="filter0_d_9_12986" x="-1.0847" y="0" width="68.6776" height="72.6774" filterUnits="userSpaceOnUse" color-interpolation-filters="sRGB">
<feFlood flood-opacity="0" result="BackgroundImageFix"/>
<feColorMatrix in="SourceAlpha" type="matrix" values="0 0 0 0 0 0 0 0 0 0 0 0 0 0 0 0 0 0 127 0" result="hardAlpha"/>
<feOffset dx="3.2541" dy="4.33881"/>
<feGaussianBlur stdDeviation="2.1694"/>
<feComposite in2="hardAlpha" operator="out"/>
<feColorMatrix type="matrix" values="0 0 0 0 0 0 0 0 0 0 0 0 0 0 0 0 0 0 0.12 0"/>
<feBlend mode="normal" in2="BackgroundImageFix" result="effect1_dropShadow_9_12986"/>
<feBlend mode="normal" in="SourceGraphic" in2="effect1_dropShadow_9_12986" result="shape"/>
</filter>
<linearGradient id="paint0_linear_9_12986" x1="0" y1="0" x2="60" y2="60" gradientUnits="userSpaceOnUse">
<stop stop-color="#FF2F00"/>
<stop offset="1" stop-color="#FF4D25"/>
</linearGradient>
<clipPath id="clip0_9_12986">
<rect width="60" height="63.9998" fill="white"/>
</clipPath>
</defs>
</svg>
