<svg width="24" height="24" viewBox="0 0 24 24" fill="none" xmlns="http://www.w3.org/2000/svg">
<g clip-path="url(#clip0_10_16413)">
<path fill-rule="evenodd" clip-rule="evenodd" d="M21.3763 3.50776C22.4096 3.78763 23.2216 4.60925 23.4982 5.65475C23.998 7.54786 24 11.5 24 11.5C24 11.5 24 15.4522 23.4982 17.3453C23.2216 18.3908 22.4096 19.2124 21.3763 19.4922C19.5055 20 12 20 12 20C12 20 4.49456 20 2.62364 19.4922C1.59039 19.2124 0.7784 18.3908 0.501811 17.3453C0 15.4522 0 11.5 0 11.5C0 11.5 0 7.54786 0.501811 5.65475C0.7784 4.60925 1.59039 3.78763 2.62364 3.50776C4.49456 3 12 3 12 3C12 3 19.5055 3 21.3763 3.50776ZM16.0153 11.5003L9.48326 14.7999V8.20065L16.0153 11.5003Z" fill="#FF0000"/>
</g>
<defs>
<clipPath id="clip0_10_16413">
<rect width="24" height="24" fill="white"/>
</clipPath>
</defs>
</svg>
