<svg width="18" height="18" viewBox="0 0 18 18" fill="none" xmlns="http://www.w3.org/2000/svg">
<g clip-path="url(#clip0_2_3278)">
<path d="M3.70581 15.3835H14.6953C16.0811 15.3835 16.7996 14.665 16.7996 13.2985V5.491C16.7996 4.11811 16.0811 3.40601 14.6953 3.40601H3.70581C2.32008 3.40601 1.60156 4.11811 1.60156 5.491V13.2985C1.60156 14.6714 2.32008 15.3835 3.70581 15.3835ZM3.78279 14.1261C3.18616 14.1261 2.85898 13.8117 2.85898 13.1895V5.59365C2.85898 4.97136 3.18616 4.66342 3.78279 4.66342H6.70179V14.1261H3.78279ZM14.6184 4.66342C15.2086 4.66342 15.5422 4.97136 15.5422 5.59365V13.1895C15.5422 13.8117 15.2086 14.1261 14.6184 14.1261H7.89505V4.66342H14.6184ZM5.44437 7.01145C5.66891 7.01145 5.86137 6.81899 5.86137 6.60086C5.86137 6.38274 5.66891 6.1967 5.44437 6.1967H4.12922C3.89827 6.1967 3.70581 6.38274 3.70581 6.60086C3.70581 6.81899 3.89827 7.01145 4.12922 7.01145H5.44437ZM5.44437 8.73077C5.66891 8.73077 5.86137 8.53831 5.86137 8.32019C5.86137 8.10206 5.66891 7.91602 5.44437 7.91602H4.12922C3.89827 7.91602 3.70581 8.10206 3.70581 8.32019C3.70581 8.53831 3.89827 8.73077 4.12922 8.73077H5.44437ZM5.44437 10.4437C5.66891 10.4437 5.86137 10.2576 5.86137 10.0395C5.86137 9.82138 5.66891 9.63534 5.44437 9.63534H4.12922C3.89827 9.63534 3.70581 9.82138 3.70581 10.0395C3.70581 10.2576 3.89827 10.4437 4.12922 10.4437H5.44437Z" fill="#2D3039" fill-opacity="0.6"/>
</g>
<defs>
<clipPath id="clip0_2_3278">
<rect width="16.8867" height="16.8867" fill="white" transform="translate(0.757324 0.95752)"/>
</clipPath>
</defs>
</svg>
