<svg width="590" height="442" viewBox="0 0 590 442" fill="none" xmlns="http://www.w3.org/2000/svg">
<g clip-path="url(#clip0_10_15074)">
<path d="M570.919 351.591C471.137 393.926 50.9002 499.796 8.56495 400.001C-33.7703 300.22 101.435 207.092 196.158 122.01C276.8 49.5677 265.318 -123.223 312.403 146.35C331.054 253.135 670.714 309.255 570.932 351.591H570.919Z" stroke="white" stroke-width="0.308922" stroke-miterlimit="10" stroke-linecap="round" stroke-dasharray="2.06 2.06 2.06 2.06 2.06 2.06"/>
<path d="M569.915 353.007C470.404 395.239 58.2372 496.591 15.1941 396.371C-27.6303 296.499 98.3328 204.865 192.876 120.736C273.62 49.0013 269.115 -119.58 315.981 146.389C334.98 252.761 669.427 310.774 569.915 353.007Z" stroke="white" stroke-width="0.308922" stroke-miterlimit="10" stroke-linecap="round" stroke-dasharray="2.06 2.06 2.06 2.06 2.06 2.06"/>
<path d="M568.924 354.41C469.683 396.526 65.5867 493.373 21.8485 392.742C-21.4521 292.793 95.2432 202.639 189.632 119.461C270.479 48.4351 272.346 -115.834 319.611 146.428C338.713 252.44 668.191 312.306 568.937 354.41H568.924Z" stroke="white" stroke-width="0.308922" stroke-miterlimit="10" stroke-linecap="round" stroke-dasharray="2.06 2.06 2.06 2.06 2.06 2.06"/>
<path d="M567.933 355.825C468.949 397.826 72.9366 490.168 28.4904 389.112C-15.2993 289.072 92.154 200.412 186.362 118.174C267.326 47.8557 275.86 -112.153 323.202 146.466C342.536 252.092 666.904 313.825 567.933 355.825Z" stroke="white" stroke-width="0.308922" stroke-miterlimit="10" stroke-linecap="round" stroke-dasharray="2.05 2.05 2.05 2.05 2.05 2.05"/>
<path d="M566.93 357.228C468.216 399.113 80.274 486.95 35.1199 385.469C-9.1461 285.352 89.0527 198.159 183.094 116.887C264.16 47.2635 279.387 -108.472 326.807 146.492C346.372 251.744 665.643 315.331 566.93 357.216V357.228Z" stroke="white" stroke-width="0.308922" stroke-miterlimit="10" stroke-linecap="round" stroke-dasharray="2.06 2.06 2.06 2.06 2.06 2.06"/>
<path d="M565.938 358.645C467.495 400.413 87.611 483.745 41.7747 381.839C-2.98044 281.646 85.9634 195.933 179.837 115.613C261.007 46.6975 282.953 -104.777 330.411 146.544C350.221 251.41 664.369 316.863 565.938 358.645Z" stroke="white" stroke-width="0.308922" stroke-miterlimit="10" stroke-linecap="round" stroke-dasharray="2.06 2.06 2.06 2.06 2.06 2.06"/>
<path d="M564.934 360.047C466.761 401.7 94.9472 480.527 48.403 378.209C3.1716 277.925 82.6804 193.5 176.567 114.338C257.685 45.9377 286.505 -101.084 334.014 146.582C354.056 251.062 663.107 318.394 564.934 360.047Z" stroke="white" stroke-width="0.308922" stroke-miterlimit="10" stroke-linecap="round" stroke-dasharray="2.05 2.05 2.05 2.05 2.05 2.05"/>
<path d="M563.943 361.463C466.04 403 102.297 477.322 55.0581 374.58C9.35049 274.219 79.5788 191.234 173.311 113.064C254.519 45.3458 290.083 -97.3891 337.619 146.634C357.905 250.728 661.846 319.926 563.943 361.463Z" stroke="white" stroke-width="0.308922" stroke-miterlimit="10" stroke-linecap="round" stroke-dasharray="2.05 2.05 2.05 2.05 2.05 2.05"/>
<path d="M562.939 362.866C465.307 404.288 109.634 474.104 61.6871 370.937C15.4903 270.486 76.4382 188.969 170.042 111.777C251.34 44.7279 293.649 -93.7079 341.223 146.659C361.754 250.38 660.572 321.432 562.939 362.866Z" stroke="white" stroke-width="0.308922" stroke-miterlimit="10" stroke-linecap="round" stroke-dasharray="2.06 2.06 2.06 2.06 2.06 2.06"/>
<path d="M561.947 364.282C464.585 405.601 116.765 471.002 68.3412 367.307C21.4493 266.882 73.3354 186.704 166.784 110.503C248.16 44.1359 297.253 -90.0136 344.827 146.711C365.602 250.045 659.309 322.977 561.947 364.282Z" stroke="white" stroke-width="0.308922" stroke-miterlimit="10" stroke-linecap="round" stroke-dasharray="2.06 2.06 2.06 2.06 2.06 2.06"/>
<path d="M560.944 365.685C463.852 406.888 124.076 467.797 74.9707 363.664C27.5769 263.162 70.2081 184.438 163.515 109.215C244.981 43.5308 300.844 -86.3453 348.431 146.737C369.451 249.698 658.048 324.483 560.944 365.685Z" stroke="white" stroke-width="0.308922" stroke-miterlimit="10" stroke-linecap="round" stroke-dasharray="2.06 2.06 2.06 2.06 2.06 2.06"/>
<path d="M559.953 367.101C463.131 408.188 131.413 464.605 81.6253 360.047C33.7295 259.467 67.1189 182.198 160.259 107.954C241.814 42.9387 304.474 -82.6382 352.048 146.801C373.312 249.376 656.787 326.027 559.966 367.114L559.953 367.101Z" stroke="white" stroke-width="0.308922" stroke-miterlimit="10" stroke-linecap="round" stroke-dasharray="2.06 2.06 2.06 2.06 2.06 2.06"/>
<path d="M558.962 368.504C462.398 409.475 138.737 461.4 88.2672 356.405C39.8822 255.748 64.004 179.92 157.002 106.654C238.648 42.321 308.104 -78.9697 355.652 146.814C377.174 249.016 655.526 327.52 558.962 368.491V368.504Z" stroke="white" stroke-width="0.308922" stroke-miterlimit="10" stroke-linecap="round" stroke-dasharray="2.06 2.06 2.06 2.06 2.06 2.06"/>
<path d="M557.957 369.907C461.664 410.762 146.061 458.182 94.9088 352.762C46.0219 252.028 60.8887 177.655 153.733 105.367C235.468 41.7159 311.746 -75.3013 359.256 146.852C381.035 248.668 654.251 329.052 557.97 369.907H557.957Z" stroke="white" stroke-width="0.308922" stroke-miterlimit="10" stroke-linecap="round" stroke-dasharray="2.06 2.06 2.06 2.06 2.06 2.06"/>
<path d="M556.966 371.323C460.943 412.062 153.398 454.99 101.551 349.132C52.1746 248.333 57.7867 175.415 150.463 104.092C232.302 41.1238 315.389 -71.6199 362.847 146.891C384.884 248.333 652.977 330.571 556.953 371.31L556.966 371.323Z" stroke="white" stroke-width="0.308922" stroke-miterlimit="10" stroke-linecap="round" stroke-dasharray="2.05 2.05 2.05 2.05 2.05 2.05"/>
<path d="M555.962 372.726C460.209 413.349 160.722 451.784 108.18 345.502C58.3144 244.626 54.6717 173.162 147.194 102.818C229.123 40.5316 319.045 -67.9387 366.451 146.943C388.745 247.999 651.715 332.103 555.962 372.739V372.726Z" stroke="white" stroke-width="0.308922" stroke-miterlimit="10" stroke-linecap="round" stroke-dasharray="2.05 2.05 2.05 2.05 2.05 2.05"/>
<path d="M554.971 374.142C459.489 414.662 168.059 448.579 114.834 341.872C64.4802 240.919 51.5698 170.91 143.938 101.544C225.956 39.9524 322.726 -64.2445 370.056 146.981C392.62 247.664 650.441 333.634 554.959 374.142H554.971Z" stroke="white" stroke-width="0.308922" stroke-miterlimit="10" stroke-linecap="round" stroke-dasharray="2.06 2.06 2.06 2.06 2.06 2.06"/>
<path d="M553.967 375.545C458.755 415.949 175.383 445.374 121.463 338.23C70.6199 237.199 48.4546 168.644 140.668 100.257C222.79 39.3475 326.407 -60.5888 373.66 147.02C396.494 247.317 649.18 335.153 553.967 375.558V375.545Z" stroke="white" stroke-width="0.308922" stroke-miterlimit="10" stroke-linecap="round" stroke-dasharray="2.06 2.06 2.06 2.06 2.06 2.06"/>
<path d="M552.976 376.961C458.034 417.249 182.733 442.169 128.118 334.6C76.7851 233.479 45.3653 166.405 137.411 98.9823C219.623 38.7553 330.114 -56.9076 377.264 147.058C400.368 246.982 647.918 336.672 552.963 376.961H552.976Z" stroke="white" stroke-width="0.308922" stroke-miterlimit="10" stroke-linecap="round" stroke-dasharray="2.05 2.05 2.05 2.05 2.05 2.05"/>
<path d="M551.972 378.364C457.301 418.537 190.057 438.964 134.747 330.957C82.9254 229.759 42.2507 164.152 134.142 97.6952C216.457 38.1633 333.822 -53.2391 380.868 147.097C404.243 246.634 646.644 338.191 551.972 378.364Z" stroke="white" stroke-width="0.308922" stroke-miterlimit="10" stroke-linecap="round" stroke-dasharray="2.06 2.06 2.06 2.06 2.06 2.06"/>
<path d="M550.981 379.78C456.579 419.837 197.394 435.759 141.401 327.34C89.0906 226.065 39.1738 161.912 130.885 96.4338C213.303 37.5841 337.554 -49.5449 384.472 147.148C408.13 246.3 645.382 339.736 550.968 379.793L550.981 379.78Z" stroke="white" stroke-width="0.308922" stroke-miterlimit="10" stroke-linecap="round" stroke-dasharray="2.05 2.05 2.05 2.05 2.05 2.05"/>
<path d="M549.99 381.183C455.859 421.124 204.744 432.554 148.044 323.698C95.2565 222.345 36.072 159.66 127.629 95.1338C210.15 36.9792 341.3 -45.9021 388.089 147.174C412.031 245.952 644.121 341.242 549.99 381.183Z" stroke="white" stroke-width="0.308922" stroke-miterlimit="10" stroke-linecap="round" stroke-dasharray="2.06 2.06 2.06 2.06 2.06 2.06"/>
<path d="M548.986 382.599C455.112 422.424 212.08 429.349 154.685 320.068C101.409 218.638 32.9697 157.42 124.359 93.8594C206.983 36.3998 345.045 -42.2338 391.693 147.213C415.917 245.604 642.859 342.761 548.986 382.599Z" stroke="white" stroke-width="0.308922" stroke-miterlimit="10" stroke-linecap="round" stroke-dasharray="2.05 2.05 2.05 2.05 2.05 2.05"/>
<path d="M547.995 384.002C454.391 423.711 219.417 426.131 161.327 316.425C107.575 214.906 29.8807 155.168 121.103 92.5724C203.83 35.8079 348.817 -38.578 395.297 147.239C419.818 245.257 641.598 344.28 547.995 383.989V384.002Z" stroke="white" stroke-width="0.308922" stroke-miterlimit="10" stroke-linecap="round" stroke-dasharray="2.06 2.06 2.06 2.06 2.06 2.06"/>
<path d="M546.991 385.418C453.658 425.024 226.755 422.926 167.969 312.808C113.728 211.211 26.7917 152.954 117.834 91.3109C200.663 35.2415 352.589 -34.8967 398.901 147.303C423.718 244.935 640.324 345.824 546.991 385.418Z" stroke="white" stroke-width="0.308922" stroke-miterlimit="10" stroke-linecap="round" stroke-dasharray="2.06 2.06 2.06 2.06 2.06 2.06"/>
<path d="M545.999 386.821C452.937 426.311 234.104 419.721 174.61 309.165C119.893 207.491 23.6892 150.701 114.577 90.0236C197.509 34.6493 356.373 -31.2412 402.505 147.329C427.631 244.575 639.062 347.33 545.999 386.821Z" stroke="white" stroke-width="0.308922" stroke-miterlimit="10" stroke-linecap="round" stroke-dasharray="2.05 2.05 2.05 2.05 2.05 2.05"/>
<path d="M544.995 388.224C452.203 427.599 241.44 416.503 181.239 305.523C126.045 203.759 20.5869 148.462 111.294 88.7366C194.343 34.0573 360.157 -27.5983 406.096 147.367C431.531 244.227 637.775 348.849 544.982 388.224H544.995Z" stroke="white" stroke-width="0.308922" stroke-miterlimit="10" stroke-linecap="round" stroke-dasharray="2.07 2.07 2.07 2.07 2.07 2.07"/>
<path d="M544.005 389.639C451.482 428.898 248.791 413.298 187.894 301.893C132.211 200.051 17.511 146.222 108.051 87.462C191.202 33.4779 363.993 -23.943 409.713 147.406C435.457 243.88 636.527 350.381 544.005 389.639Z" stroke="white" stroke-width="0.308922" stroke-miterlimit="10" stroke-linecap="round" stroke-dasharray="2.06 2.06 2.06 2.06 2.06 2.06"/>
<path d="M543.013 391.043C450.761 430.186 256.153 410.08 194.536 298.25C138.377 196.319 14.4216 143.982 104.781 86.175C188.049 32.8988 367.816 -20.3001 413.317 147.445C439.383 243.532 635.265 351.9 543 391.043H543.013Z" stroke="white" stroke-width="0.308922" stroke-miterlimit="10" stroke-linecap="round" stroke-dasharray="2.06 2.06 2.06 2.06 2.06 2.06"/>
<path d="M542.009 392.459C450.028 431.486 263.49 406.875 201.178 294.633C144.542 192.624 11.3324 141.768 101.525 84.9008C184.895 32.3325 371.664 -16.6445 416.921 147.483C443.308 243.185 633.991 353.418 542.009 392.459Z" stroke="white" stroke-width="0.308922" stroke-miterlimit="10" stroke-linecap="round" stroke-dasharray="2.06 2.06 2.06 2.06 2.06 2.06"/>
<path d="M541.018 393.861C449.307 432.773 270.84 403.657 207.82 290.99C150.708 188.891 8.25629 139.528 98.2556 83.6133C181.742 31.7401 375.526 -13.0021 420.526 147.522C447.248 242.837 632.73 354.937 541.005 393.861H541.018Z" stroke="white" stroke-width="0.308922" stroke-miterlimit="10" stroke-linecap="round" stroke-dasharray="2.06 2.06 2.06 2.06 2.06 2.06"/>
<path d="M540.014 395.277C448.56 434.086 278.189 400.452 214.461 287.361C156.873 185.172 5.16651 137.314 94.9985 82.3391C178.601 31.1739 379.4 -9.35934 424.142 147.56C451.199 242.489 631.481 356.469 540.027 395.264L540.014 395.277Z" stroke="white" stroke-width="0.308922" stroke-miterlimit="10" stroke-linecap="round" stroke-dasharray="2.06 2.06 2.06 2.06 2.06 2.06"/>
<path d="M539.023 396.68C447.84 435.373 285.54 397.221 221.104 283.718C163.052 181.452 2.09073 135.075 91.7297 81.0521C175.448 30.5948 383.275 -5.72933 427.734 147.599C455.151 242.129 630.194 357.988 539.023 396.68Z" stroke="white" stroke-width="0.308922" stroke-miterlimit="10" stroke-linecap="round" stroke-dasharray="2.06 2.06 2.06 2.06 2.06 2.06"/>
<path d="M538.019 398.096C447.106 436.673 292.889 394.016 227.745 280.101C169.217 177.745 -0.998615 132.874 88.473 79.7905C172.307 30.054 387.175 -2.07395 431.351 147.65C459.115 241.782 628.945 359.519 538.032 398.096H538.019Z" stroke="white" stroke-width="0.308922" stroke-miterlimit="10" stroke-linecap="round" stroke-dasharray="2.05 2.05 2.05 2.05 2.05 2.05"/>
<path d="M537.028 399.499C446.385 437.96 300.239 390.798 234.387 276.458C175.383 174.012 -4.07519 130.647 85.2033 78.5034C169.153 29.4748 391.088 1.54313 434.942 147.689C463.08 241.421 627.658 361.051 537.028 399.512V399.499Z" stroke="white" stroke-width="0.308922" stroke-miterlimit="10" stroke-linecap="round" stroke-dasharray="2.06 2.06 2.06 2.06 2.06 2.06"/>
<path d="M536.024 400.915C445.651 439.26 307.589 387.593 241.029 272.828C181.561 170.292 -7.16464 128.433 81.9466 77.229C166.012 28.9213 395.014 5.17293 438.559 147.728C467.07 241.061 626.409 362.57 536.036 400.915H536.024Z" stroke="white" stroke-width="0.308922" stroke-miterlimit="10" stroke-linecap="round" stroke-dasharray="2.06 2.06 2.06 2.06 2.06 2.06"/>
<path d="M535.033 402.318C444.93 440.547 314.951 384.362 247.671 269.186C187.727 166.572 -10.2407 126.206 78.6775 75.942C162.859 28.3551 398.953 8.79011 442.15 147.766C471.034 240.701 625.135 364.089 535.033 402.318Z" stroke="white" stroke-width="0.308922" stroke-miterlimit="10" stroke-linecap="round" stroke-dasharray="2.06 2.06 2.06 2.06 2.06 2.06"/>
<path d="M534.042 403.734C444.21 441.847 322.314 381.157 254.312 265.556C193.905 162.852 -13.3172 123.992 75.4207 74.6676C159.731 27.7886 402.904 12.4069 445.767 147.805C475.05 240.327 623.874 365.608 534.042 403.734Z" stroke="white" stroke-width="0.308922" stroke-miterlimit="10" stroke-linecap="round" stroke-dasharray="2.06 2.06 2.06 2.06 2.06 2.06"/>
<path d="M533.038 405.137C443.476 443.148 329.664 377.926 260.955 261.926C200.071 159.132 -16.3931 121.791 72.1518 73.3805C156.578 27.2353 406.869 16.0111 449.359 147.844C479.054 239.954 622.6 367.14 533.038 405.137Z" stroke="white" stroke-width="0.308922" stroke-miterlimit="10" stroke-linecap="round" stroke-dasharray="2.06 2.06 2.06 2.06 2.06 2.06"/>
<path d="M532.047 406.54C442.755 444.435 337.027 374.708 267.596 258.283C206.25 155.399 -19.4696 119.564 68.895 72.0933C153.45 26.6689 410.859 19.6023 452.975 147.869C483.082 239.568 621.338 368.646 532.047 406.54Z" stroke="white" stroke-width="0.308922" stroke-miterlimit="10" stroke-linecap="round" stroke-dasharray="2.05 2.05 2.05 2.05 2.05 2.05"/>
<path d="M531.043 407.956C442.022 445.735 344.608 371.362 274.238 254.654C212.621 151.551 -22.5459 117.363 65.6256 70.819C150.296 26.1154 414.849 23.2064 456.567 147.921C487.111 239.195 620.064 370.178 531.043 407.956Z" stroke="white" stroke-width="0.308922" stroke-miterlimit="10" stroke-linecap="round" stroke-dasharray="2.06 2.06 2.06 2.06 2.06 2.06"/>
<path d="M530.052 409.359C441.288 447.022 351.945 368.144 280.88 251.011C218.787 147.831 -25.6219 115.149 62.3695 69.5318C147.169 25.5619 418.866 26.7976 460.184 147.947C491.166 238.795 618.816 371.696 530.052 409.359Z" stroke="white" stroke-width="0.308922" stroke-miterlimit="10" stroke-linecap="round" stroke-dasharray="2.05 2.05 2.05 2.05 2.05 2.05"/>
<path d="M529.048 410.775C440.554 448.322 359.282 364.939 287.522 247.394C224.939 144.124 -28.6987 112.974 59.0996 68.2703C144.015 25.0341 422.881 30.4016 463.788 148.011C495.233 238.422 617.541 373.241 529.061 410.788L529.048 410.775Z" stroke="white" stroke-width="0.308922" stroke-miterlimit="10" stroke-linecap="round" stroke-dasharray="2.06 2.06 2.06 2.06 2.06 2.06"/>
<path d="M528.056 412.178C439.833 449.609 366.632 361.72 294.164 243.751C231.105 140.403 -31.7621 110.76 55.8431 66.983C140.887 24.4805 426.923 33.9669 467.392 148.036C499.314 238.01 616.279 374.747 528.056 412.178Z" stroke="white" stroke-width="0.308922" stroke-miterlimit="10" stroke-linecap="round" stroke-dasharray="2.06 2.06 2.06 2.06 2.06 2.06"/>
<path d="M527.066 413.594C439.113 450.909 373.982 358.516 300.819 240.121C237.271 136.684 -34.8253 108.572 52.5869 65.709C137.759 23.9401 430.978 37.5456 471.009 148.075C503.42 237.598 615.031 376.266 527.079 413.594H527.066Z" stroke="white" stroke-width="0.308922" stroke-miterlimit="10" stroke-linecap="round" stroke-dasharray="2.05 2.05 2.05 2.05 2.05 2.05"/>
<path d="M526.061 414.997C438.379 452.196 381.318 355.298 307.447 236.479C243.423 132.964 -37.9151 106.371 49.3039 64.4219C134.605 23.3996 435.032 41.0982 474.587 148.114C507.513 237.187 613.731 377.798 526.048 414.997H526.061Z" stroke="white" stroke-width="0.308922" stroke-miterlimit="10" stroke-linecap="round" stroke-dasharray="2.07 2.07 2.07 2.07 2.07 2.07"/>
<path d="M525.07 416.413C437.658 453.509 388.668 352.093 314.102 232.849C249.589 129.257 -40.9657 104.182 46.0602 63.1473C131.49 22.8716 439.125 44.6635 478.217 148.152C511.683 236.762 612.495 379.316 525.083 416.413H525.07Z" stroke="white" stroke-width="0.308922" stroke-miterlimit="10" stroke-linecap="round" stroke-dasharray="2.06 2.06 2.06 2.06 2.06 2.06"/>
<path d="M524.067 417.816C436.925 454.797 396.005 348.875 320.731 229.219C255.742 125.537 -44.0543 101.994 42.7786 61.8604C128.324 22.3312 443.193 48.2034 481.796 148.191C515.816 236.311 611.196 380.835 524.054 417.816H524.067Z" stroke="white" stroke-width="0.308922" stroke-miterlimit="10" stroke-linecap="round" stroke-dasharray="2.06 2.06 2.06 2.06 2.06 2.06"/>
<path d="M523.075 419.232C436.204 456.096 403.355 345.67 327.386 225.589C261.92 121.83 -47.0406 99.9606 39.5348 60.5858C125.286 21.9577 447.325 51.743 485.426 148.23C520.025 235.861 609.96 382.367 523.088 419.219L523.075 419.232Z" stroke="white" stroke-width="0.308922" stroke-miterlimit="10" stroke-linecap="round" stroke-dasharray="2.06 2.06 2.06 2.06 2.06 2.06"/>
<path d="M522.072 420.635C435.47 457.384 410.692 342.452 334.015 221.946C268.06 118.097 -50.1555 97.7209 36.2526 59.2987C122.107 21.3656 451.418 55.2569 489.004 148.268C524.221 235.397 608.673 383.886 522.059 420.635H522.072Z" stroke="white" stroke-width="0.308922" stroke-miterlimit="10" stroke-linecap="round" stroke-dasharray="2.06 2.06 2.06 2.06 2.06 2.06"/>
<path d="M521.08 422.051C434.737 458.684 418.029 339.247 340.657 218.316C274.226 114.39 -53.2446 95.4941 32.9962 58.0245C118.954 20.7993 455.563 58.7839 492.621 148.307C528.469 234.921 607.411 385.405 521.08 422.038V422.051Z" stroke="white" stroke-width="0.308922" stroke-miterlimit="10" stroke-linecap="round" stroke-dasharray="2.06 2.06 2.06 2.06 2.06 2.06"/>
<path d="M520.076 423.454C434.002 459.971 425.365 336.029 347.298 214.687C280.378 110.67 -56.3344 93.2674 29.7262 56.7502C115.8 20.233 459.694 62.2851 496.212 148.359C532.729 234.432 606.136 386.937 520.063 423.467L520.076 423.454Z" stroke="white" stroke-width="0.308922" stroke-miterlimit="10" stroke-linecap="round" stroke-dasharray="2.06 2.06 2.06 2.06 2.06 2.06"/>
</g>
<defs>
<clipPath id="clip0_10_15074">
<rect width="588.667" height="441.115" fill="white" transform="translate(0.576416 0.442383)"/>
</clipPath>
</defs>
</svg>
