<svg width="49" height="18" viewBox="0 0 49 18" fill="none" xmlns="http://www.w3.org/2000/svg">
<g clip-path="url(#clip0_2_3283)">
<path d="M33.9663 9.40664C33.9663 9.75006 34.2537 10.0304 34.5901 10.0304H39.1247V14.565C39.1247 14.9014 39.405 15.1888 39.7484 15.1888C40.0919 15.1888 40.3792 14.9014 40.3792 14.565V10.0304H44.9068C45.2432 10.0304 45.5306 9.75006 45.5306 9.40664C45.5306 9.06322 45.2432 8.77586 44.9068 8.77586H40.3792V4.24828C40.3792 3.91187 40.0919 3.62451 39.7484 3.62451C39.405 3.62451 39.1247 3.91187 39.1247 4.24828V8.77586H34.5901C34.2537 8.77586 33.9663 9.06322 33.9663 9.40664Z" fill="#2D3039" fill-opacity="0.6"/>
<path d="M9.35243 16.5554C13.2632 16.5554 16.5012 13.3104 16.5012 9.40663C16.5012 5.4958 13.2562 2.25781 9.34542 2.25781C5.4416 2.25781 2.20361 5.4958 2.20361 9.40663C2.20361 13.3104 5.44861 16.5554 9.35243 16.5554ZM9.35243 15.364C6.04435 15.364 3.40209 12.7147 3.40209 9.40663C3.40209 6.09855 6.03734 3.44928 9.34542 3.44928C12.6535 3.44928 15.3098 6.09855 15.3098 9.40663C15.3098 12.7147 12.6605 15.364 9.35243 15.364ZM9.35243 5.83923C9.05105 5.83923 8.82678 6.0565 8.82678 6.36488V9.8692L8.88285 11.348L8.18198 10.507L7.34795 9.66594C7.24983 9.56782 7.12368 9.51175 6.9765 9.51175C6.68914 9.51175 6.47187 9.72902 6.47187 10.0164C6.47187 10.1636 6.51393 10.2897 6.60504 10.3808L8.94592 12.7077C9.0861 12.8479 9.20524 12.9109 9.35243 12.9109C9.50662 12.9109 9.63277 12.8409 9.76594 12.7077L12.0998 10.3808C12.1909 10.2897 12.247 10.1636 12.247 10.0164C12.247 9.72902 12.0227 9.51175 11.7354 9.51175C11.5812 9.51175 11.455 9.56082 11.3639 9.66594L10.5369 10.507L9.822 11.355L9.87807 9.8692V6.36488C9.87807 6.0565 9.66081 5.83923 9.35243 5.83923Z" fill="#2D3039" fill-opacity="0.6"/>
</g>
<defs>
<clipPath id="clip0_2_3283">
<rect width="47.2828" height="16.8867" fill="white" transform="translate(0.90918 0.95752)"/>
</clipPath>
</defs>
</svg>
