<svg width="13" height="13" viewBox="0 0 13 13" fill="none" xmlns="http://www.w3.org/2000/svg">
<g clip-path="url(#clip0_2_3282)">
<g clip-path="url(#clip1_2_3282)">
<path d="M6.08573 8.40933L6.83772 7.65239C6.24404 7.59797 5.82847 7.40998 5.52174 7.10324C4.68565 6.26716 4.68565 5.07981 5.5168 4.24867L7.15929 2.60617C7.99538 1.77008 9.17778 1.77008 10.0139 2.60617C10.8549 3.45216 10.85 4.62961 10.0188 5.46075L9.16788 6.31168C9.3262 6.67283 9.37567 7.11314 9.29157 7.49408L10.7114 6.07916C11.9285 4.86708 11.9334 3.14542 10.7065 1.9185C9.47956 0.686629 7.75791 0.696523 6.54583 1.90861L4.82418 3.6352C3.61209 4.84729 3.6022 6.56894 4.82912 7.79586C5.12101 8.08281 5.51185 8.30049 6.08573 8.40933ZM6.52109 4.23877L5.77405 4.99571C6.36278 5.05013 6.7833 5.24307 7.08508 5.54485C7.92612 6.38589 7.92612 7.56829 7.09003 8.39943L5.44753 10.0419C4.61144 10.878 3.43399 10.878 2.59296 10.0419C1.75192 9.20089 1.75687 8.01849 2.59296 7.18735L3.43894 6.33642C3.28557 5.97527 3.23115 5.53991 3.31526 5.15402L1.90034 6.56894C0.683308 7.78102 0.67836 9.50762 1.90528 10.7345C3.13221 11.9615 4.85386 11.9516 6.06594 10.7395L7.78265 9.01784C8.99968 7.80081 9.00462 6.07916 7.7777 4.85718C7.49076 4.56529 7.09992 4.34761 6.52109 4.23877Z" fill="#2D3039" fill-opacity="0.6"/>
</g>
</g>
<defs>
<clipPath id="clip0_2_3282">
<rect width="11.8207" height="11.8207" fill="white" transform="translate(0.479492 0.490479)"/>
</clipPath>
<clipPath id="clip1_2_3282">
<rect width="11.8207" height="11.8207" fill="white" transform="translate(0.479492 0.490479)"/>
</clipPath>
</defs>
</svg>
