<svg width="468" height="147" viewBox="0 0 468 147" fill="none" xmlns="http://www.w3.org/2000/svg">
<g clip-path="url(#clip0_6_12975)">
<rect x="0.685547" y="34.9241" width="63.4892" height="77.6809" rx="8.39793" fill="white"/>
<rect x="3.67285" y="37.9117" width="57.5137" height="71.7054" rx="6.29845" fill="white" stroke="#FF4C22" stroke-width="1.04974"/>
<path d="M36.1239 74.5491L38.5816 77.0042C39.7636 74.9373 41.3995 73.1657 43.3658 71.823L43.4721 71.7503M49.4031 74.0113C49.4031 79.316 45.1028 83.6164 39.798 83.6164C34.4932 83.6164 30.1929 79.316 30.1929 74.0113C30.1929 68.7065 34.4932 64.4061 39.798 64.4061C45.1028 64.4061 49.4031 68.7065 49.4031 74.0113Z" stroke="#FF4C22" stroke-width="2.09948" stroke-linecap="round" stroke-linejoin="round"/>
<rect x="81.5156" y="34.9241" width="63.4892" height="77.6809" rx="8.39793" fill="white"/>
<rect x="84.5029" y="37.9117" width="57.5137" height="71.7054" rx="6.29845" fill="white" stroke="#FF4C22" stroke-width="1.04974"/>
<rect x="162.346" y="34.9241" width="63.4892" height="77.6809" rx="8.39793" fill="white"/>
<rect x="165.333" y="37.9117" width="57.5137" height="71.7054" rx="6.29845" fill="white" stroke="#FF4C22" stroke-width="1.04974"/>
<rect x="242.125" y="34.924" width="63.4892" height="77.6809" rx="8.39793" fill="white"/>
<rect x="245.113" y="37.9117" width="57.5137" height="71.7054" rx="6.29845" fill="white" stroke="#FF4C22" stroke-width="1.04974"/>
<rect x="322.956" y="34.924" width="63.4892" height="77.6809" rx="8.39793" fill="white"/>
<rect x="325.943" y="37.9117" width="57.5137" height="71.7054" rx="6.29845" fill="white" stroke="#FF4C22" stroke-width="1.04974"/>
<rect x="403.786" y="34.924" width="63.4892" height="77.6809" rx="8.39793" fill="white"/>
<rect x="406.773" y="37.9117" width="57.5137" height="71.7054" rx="6.29845" fill="white" stroke="#FF4C22" stroke-width="1.04974"/>
<rect x="172.843" y="0.529785" width="119.711" height="146.47" rx="16.7959" fill="white" stroke="#FF4C22"/>
<rect x="178.475" y="6.16345" width="108.444" height="135.203" rx="12.5969" fill="#FF4C22" stroke="#EDCCC5" stroke-width="1.04974"/>
<path d="M249.999 49.0363C250.009 49.9661 250.009 51.0022 250.009 52.1669C250.009 57.4389 250.009 60.0749 249.09 62.1542C247.865 64.9266 245.515 67.1293 242.557 68.2776C240.338 69.1389 237.526 69.1389 231.901 69.1389C226.276 69.1389 223.464 69.1389 221.245 68.2776C218.287 67.1293 215.937 64.9266 214.712 62.1542C213.793 60.0749 213.793 57.4389 213.793 52.1669C213.793 46.8949 213.793 44.2589 214.712 42.1796C215.937 39.4072 218.287 37.2045 221.245 36.0561C223.464 35.1948 226.276 35.1948 231.901 35.1948C237.035 35.1948 239.826 35.1948 241.961 35.8498M250.079 39.727L248.484 40.7475C242.035 44.8755 236.67 50.322 232.793 56.6764L232.07 57.8615L225.079 50.2811" stroke="white" stroke-width="4.02401" stroke-linecap="round" stroke-linejoin="round"/>
<rect x="189.639" y="106.307" width="85" height="27" rx="4" fill="url(#paint0_linear_6_12975)"/>
<path d="M209.819 118.155H208.656C208.611 117.906 208.528 117.688 208.406 117.499C208.284 117.31 208.135 117.15 207.959 117.018C207.782 116.886 207.585 116.787 207.366 116.72C207.15 116.653 206.92 116.619 206.676 116.619C206.236 116.619 205.843 116.73 205.495 116.951C205.149 117.172 204.876 117.496 204.675 117.924C204.476 118.351 204.376 118.873 204.376 119.489C204.376 120.111 204.476 120.635 204.675 121.063C204.876 121.49 205.15 121.813 205.498 122.032C205.846 122.25 206.238 122.36 206.673 122.36C206.914 122.36 207.142 122.327 207.359 122.263C207.577 122.196 207.775 122.098 207.951 121.968C208.128 121.839 208.277 121.681 208.399 121.495C208.523 121.306 208.609 121.09 208.656 120.846L209.819 120.85C209.757 121.225 209.636 121.571 209.457 121.886C209.281 122.199 209.053 122.47 208.775 122.699C208.499 122.925 208.184 123.1 207.828 123.225C207.473 123.349 207.085 123.411 206.665 123.411C206.004 123.411 205.415 123.254 204.898 122.941C204.381 122.626 203.974 122.175 203.675 121.588C203.38 121.002 203.232 120.302 203.232 119.489C203.232 118.674 203.381 117.975 203.679 117.391C203.977 116.804 204.385 116.354 204.902 116.041C205.419 115.726 206.007 115.568 206.665 115.568C207.07 115.568 207.448 115.626 207.798 115.743C208.151 115.857 208.468 116.026 208.749 116.25C209.03 116.471 209.262 116.742 209.446 117.063C209.63 117.381 209.754 117.745 209.819 118.155ZM212.222 119.907V123.307H211.108V115.672H212.207V118.513H212.278C212.412 118.205 212.617 117.96 212.893 117.778C213.169 117.597 213.53 117.506 213.974 117.506C214.367 117.506 214.71 117.587 215.003 117.749C215.299 117.91 215.528 118.151 215.689 118.472C215.853 118.79 215.935 119.187 215.935 119.665V123.307H214.821V119.799C214.821 119.379 214.712 119.053 214.496 118.822C214.28 118.589 213.979 118.472 213.594 118.472C213.331 118.472 213.095 118.528 212.886 118.639C212.68 118.751 212.517 118.915 212.398 119.132C212.281 119.345 212.222 119.604 212.222 119.907ZM219.089 123.433C218.726 123.433 218.398 123.366 218.105 123.232C217.812 123.095 217.579 122.898 217.408 122.639C217.239 122.381 217.154 122.064 217.154 121.689C217.154 121.366 217.216 121.1 217.341 120.891C217.465 120.682 217.633 120.517 217.844 120.395C218.055 120.273 218.291 120.182 218.552 120.119C218.813 120.057 219.079 120.01 219.35 119.978C219.693 119.938 219.971 119.906 220.185 119.881C220.399 119.853 220.554 119.81 220.651 119.75C220.748 119.691 220.796 119.594 220.796 119.46V119.433C220.796 119.108 220.704 118.856 220.52 118.677C220.339 118.498 220.068 118.408 219.708 118.408C219.332 118.408 219.037 118.492 218.821 118.658C218.607 118.822 218.459 119.005 218.377 119.206L217.329 118.968C217.454 118.62 217.635 118.339 217.874 118.125C218.115 117.909 218.392 117.752 218.705 117.655C219.018 117.556 219.347 117.506 219.693 117.506C219.921 117.506 220.164 117.534 220.42 117.588C220.678 117.64 220.919 117.737 221.143 117.879C221.369 118.021 221.554 118.223 221.698 118.487C221.842 118.748 221.915 119.087 221.915 119.504V123.307H220.826V122.524H220.781C220.709 122.668 220.601 122.81 220.457 122.949C220.313 123.088 220.128 123.204 219.902 123.295C219.675 123.387 219.405 123.433 219.089 123.433ZM219.331 122.539C219.639 122.539 219.903 122.478 220.121 122.356C220.343 122.234 220.51 122.075 220.625 121.879C220.742 121.68 220.8 121.468 220.8 121.241V120.503C220.76 120.543 220.683 120.58 220.569 120.615C220.457 120.647 220.329 120.676 220.185 120.701C220.041 120.723 219.9 120.744 219.764 120.764C219.627 120.782 219.513 120.797 219.421 120.809C219.204 120.836 219.007 120.882 218.828 120.947C218.652 121.012 218.51 121.105 218.403 121.227C218.299 121.346 218.246 121.505 218.246 121.704C218.246 121.98 218.348 122.188 218.552 122.33C218.756 122.469 219.016 122.539 219.331 122.539ZM224.514 115.672V123.307H223.399V115.672H224.514ZM227.128 115.672V123.307H226.013V115.672H227.128ZM231.095 123.422C230.531 123.422 230.045 123.302 229.638 123.061C229.232 122.817 228.919 122.475 228.698 122.035C228.479 121.593 228.37 121.075 228.37 120.481C228.37 119.894 228.479 119.378 228.698 118.93C228.919 118.483 229.228 118.134 229.623 117.883C230.02 117.632 230.485 117.506 231.017 117.506C231.34 117.506 231.653 117.56 231.956 117.667C232.259 117.773 232.532 117.941 232.773 118.17C233.014 118.398 233.204 118.695 233.343 119.061C233.482 119.424 233.552 119.865 233.552 120.384V120.779H229V119.944H232.46C232.46 119.651 232.4 119.391 232.281 119.165C232.161 118.936 231.994 118.756 231.777 118.625C231.564 118.493 231.313 118.427 231.024 118.427C230.711 118.427 230.438 118.504 230.204 118.658C229.973 118.81 229.794 119.009 229.667 119.255C229.543 119.498 229.481 119.763 229.481 120.049V120.701C229.481 121.084 229.548 121.409 229.682 121.678C229.819 121.946 230.009 122.151 230.253 122.293C230.496 122.432 230.781 122.501 231.106 122.501C231.318 122.501 231.51 122.472 231.684 122.412C231.858 122.35 232.008 122.258 232.135 122.136C232.262 122.014 232.359 121.864 232.426 121.685L233.481 121.875C233.396 122.186 233.245 122.458 233.026 122.692C232.81 122.923 232.538 123.103 232.21 123.232C231.884 123.359 231.513 123.422 231.095 123.422ZM235.903 119.907V123.307H234.788V117.581H235.858V118.513H235.929C236.061 118.21 236.267 117.966 236.548 117.782C236.831 117.598 237.188 117.506 237.618 117.506C238.008 117.506 238.35 117.588 238.643 117.752C238.936 117.914 239.164 118.155 239.325 118.475C239.487 118.796 239.567 119.192 239.567 119.665V123.307H238.453V119.799C238.453 119.384 238.345 119.059 238.129 118.826C237.912 118.59 237.615 118.472 237.238 118.472C236.979 118.472 236.749 118.528 236.548 118.639C236.349 118.751 236.191 118.915 236.075 119.132C235.96 119.345 235.903 119.604 235.903 119.907ZM243.463 125.573C243.008 125.573 242.617 125.513 242.289 125.394C241.963 125.275 241.697 125.117 241.491 124.921C241.285 124.724 241.131 124.509 241.029 124.276L241.987 123.881C242.054 123.99 242.143 124.106 242.255 124.227C242.369 124.352 242.524 124.457 242.717 124.544C242.914 124.631 243.166 124.675 243.474 124.675C243.897 124.675 244.246 124.572 244.522 124.365C244.798 124.162 244.935 123.836 244.935 123.389V122.263H244.865C244.798 122.385 244.701 122.52 244.574 122.669C244.45 122.818 244.278 122.948 244.059 123.057C243.841 123.166 243.556 123.221 243.206 123.221C242.753 123.221 242.346 123.115 241.983 122.904C241.623 122.69 241.337 122.376 241.126 121.961C240.917 121.543 240.813 121.03 240.813 120.421C240.813 119.812 240.916 119.291 241.122 118.856C241.331 118.421 241.616 118.088 241.979 117.857C242.342 117.623 242.753 117.506 243.213 117.506C243.569 117.506 243.856 117.566 244.074 117.685C244.293 117.802 244.463 117.939 244.585 118.095C244.709 118.252 244.805 118.39 244.872 118.509H244.954V117.581H246.046V123.433C246.046 123.925 245.932 124.329 245.703 124.645C245.475 124.961 245.165 125.194 244.775 125.346C244.387 125.497 243.95 125.573 243.463 125.573ZM243.452 122.296C243.772 122.296 244.043 122.222 244.264 122.073C244.488 121.921 244.657 121.705 244.771 121.424C244.888 121.141 244.947 120.802 244.947 120.406C244.947 120.021 244.889 119.682 244.775 119.389C244.661 119.095 244.493 118.867 244.272 118.703C244.051 118.536 243.777 118.453 243.452 118.453C243.116 118.453 242.837 118.54 242.613 118.714C242.389 118.885 242.22 119.119 242.106 119.415C241.994 119.711 241.938 120.041 241.938 120.406C241.938 120.782 241.995 121.111 242.11 121.394C242.224 121.678 242.393 121.899 242.617 122.058C242.843 122.217 243.121 122.296 243.452 122.296ZM250.009 123.422C249.445 123.422 248.959 123.302 248.551 123.061C248.146 122.817 247.833 122.475 247.612 122.035C247.393 121.593 247.284 121.075 247.284 120.481C247.284 119.894 247.393 119.378 247.612 118.93C247.833 118.483 248.141 118.134 248.536 117.883C248.934 117.632 249.399 117.506 249.931 117.506C250.254 117.506 250.567 117.56 250.87 117.667C251.173 117.773 251.445 117.941 251.686 118.17C251.928 118.398 252.118 118.695 252.257 119.061C252.396 119.424 252.466 119.865 252.466 120.384V120.779H247.914V119.944H251.373C251.373 119.651 251.314 119.391 251.194 119.165C251.075 118.936 250.907 118.756 250.691 118.625C250.477 118.493 250.226 118.427 249.938 118.427C249.625 118.427 249.352 118.504 249.118 118.658C248.887 118.81 248.708 119.009 248.581 119.255C248.457 119.498 248.395 119.763 248.395 120.049V120.701C248.395 121.084 248.462 121.409 248.596 121.678C248.733 121.946 248.923 122.151 249.166 122.293C249.41 122.432 249.695 122.501 250.02 122.501C250.231 122.501 250.424 122.472 250.598 122.412C250.772 122.35 250.922 122.258 251.049 122.136C251.176 122.014 251.273 121.864 251.34 121.685L252.395 121.875C252.31 122.186 252.159 122.458 251.94 122.692C251.724 122.923 251.452 123.103 251.124 123.232C250.798 123.359 250.426 123.422 250.009 123.422ZM259.362 115.672V123.307H258.206V116.828H258.162L256.335 118.021V116.917L258.24 115.672H259.362Z" fill="#171717"/>
<path d="M109.606 74.5499L112.064 77.0049C113.246 74.938 114.882 73.1664 116.848 71.8237L116.955 71.7511M122.886 74.012C122.886 79.3168 118.585 83.6171 113.28 83.6171C107.976 83.6171 103.675 79.3168 103.675 74.012C103.675 68.7072 107.976 64.4069 113.28 64.4069C118.585 64.4069 122.886 68.7072 122.886 74.012Z" stroke="#FF4C22" stroke-width="2.09948" stroke-linecap="round" stroke-linejoin="round"/>
<g opacity="0.5">
<path d="M354.723 73.487V69.288M354.714 77.1611H354.725M351.132 64.5642H358.313C360.545 64.5642 361.662 64.5642 362.516 64.9988C363.266 65.3812 363.876 65.9912 364.258 66.7414C364.694 67.5948 364.694 68.7117 364.694 70.9466V75.7335C364.694 76.4735 364.694 76.8441 364.645 77.1538C364.513 77.9861 364.121 78.7553 363.526 79.3512C362.93 79.9472 362.161 80.3391 361.329 80.4709C360.73 80.5654 360.123 80.4709 359.523 80.5276C359.026 80.5738 358.565 80.8045 358.23 81.1743C357.879 81.5627 357.589 82.0162 357.274 82.434C356.409 83.5887 355.976 84.1671 355.445 84.3739C354.98 84.5546 354.464 84.5546 353.999 84.3739C353.468 84.1671 353.035 83.5897 352.169 82.434C351.856 82.0162 351.565 81.5627 351.213 81.1743C350.878 80.8048 350.417 80.5741 349.921 80.5276C349.322 80.472 348.714 80.5644 348.115 80.4699C347.283 80.3382 346.514 79.9463 345.919 79.3506C345.323 78.7549 344.931 77.9859 344.799 77.1538C344.75 76.8441 344.75 76.4735 344.75 75.7324V70.9466C344.75 68.7128 344.75 67.5959 345.185 66.7435C345.567 65.9931 346.178 65.3831 346.928 65.0009C347.782 64.5642 348.899 64.5642 351.132 64.5642Z" stroke="#171717" stroke-width="2.09948" stroke-linecap="round" stroke-linejoin="round"/>
</g>
</g>
<defs>
<linearGradient id="paint0_linear_6_12975" x1="232.139" y1="106.307" x2="232.139" y2="133.307" gradientUnits="userSpaceOnUse">
<stop stop-color="#FAF6FF"/>
<stop offset="1" stop-color="#FDFDFF"/>
</linearGradient>
<clipPath id="clip0_6_12975">
<rect width="466.589" height="146.47" fill="white" transform="translate(0.685547 0.529785)"/>
</clipPath>
</defs>
</svg>
