<svg width="20" height="20" viewBox="0 0 20 20" fill="none" xmlns="http://www.w3.org/2000/svg">
<g clip-path="url(#clip0_10_16414)">
<g clip-path="url(#clip1_10_16414)">
<path d="M18.125 0.468822H1.875C1.5063 0.46507 1.15117 0.607735 0.887529 0.865514C0.623892 1.12329 0.473283 1.47513 0.46875 1.84382V18.1594C0.474103 18.5276 0.625072 18.8786 0.88862 19.1357C1.15217 19.3928 1.50683 19.5351 1.875 19.5313H18.125C18.4937 19.5342 18.8486 19.3911 19.1121 19.1332C19.3756 18.8752 19.5263 18.5235 19.5312 18.1548V1.83913C19.5247 1.47152 19.3733 1.12136 19.1099 0.864769C18.8466 0.608173 18.4927 0.465881 18.125 0.468822Z" fill="#0076B2"/>
<path d="M3.29043 7.61401H6.12012V16.7187H3.29043V7.61401ZM4.70606 3.08276C5.03061 3.08276 5.34787 3.17902 5.6177 3.35937C5.88753 3.53971 6.09782 3.79603 6.22194 4.09591C6.34607 4.39579 6.37847 4.72574 6.31504 5.04403C6.25161 5.36233 6.0952 5.65466 5.8656 5.88404C5.636 6.11342 5.34352 6.26955 5.02517 6.33268C4.70681 6.39581 4.37689 6.36309 4.07713 6.23868C3.77737 6.11426 3.52125 5.90374 3.34117 5.63373C3.16108 5.36373 3.06512 5.04638 3.06543 4.72183C3.06584 4.28698 3.23888 3.87008 3.54651 3.56274C3.85414 3.2554 4.27121 3.08276 4.70606 3.08276ZM7.89512 7.61401H10.6076V8.86401H10.6451C11.0232 8.14839 11.9451 7.3937 13.3217 7.3937C16.1873 7.38745 16.7186 9.27339 16.7186 11.7187V16.7187H13.8889V12.289C13.8889 11.2343 13.8701 9.87651 12.4186 9.87651C10.967 9.87651 10.7201 11.0265 10.7201 12.2203V16.7187H7.89512V7.61401Z" fill="white"/>
</g>
</g>
<defs>
<clipPath id="clip0_10_16414">
<rect width="20" height="20" fill="white"/>
</clipPath>
<clipPath id="clip1_10_16414">
<rect width="20" height="20" fill="white"/>
</clipPath>
</defs>
</svg>
