<svg width="60" height="64" viewBox="0 0 60 64" fill="none" xmlns="http://www.w3.org/2000/svg">
<g clip-path="url(#clip0_9_12988)">
<g filter="url(#filter0_d_9_12988)">
<rect y="4.33887" width="59.661" height="59.661" rx="8.67761" fill="#612B1F"/>
<rect width="60" height="60" rx="8.67761" fill="url(#paint0_linear_9_12988)"/>
<g clip-path="url(#clip1_9_12988)">
<path fill-rule="evenodd" clip-rule="evenodd" d="M37.6016 14.6397C37.721 14.4479 37.8946 14.2958 38.1005 14.2027C38.3064 14.1095 38.5352 14.0794 38.7581 14.1163L44.6347 15.0969C44.9335 15.1467 45.2003 15.3131 45.3765 15.5596C45.5526 15.806 45.6237 16.1123 45.5741 16.4112L44.5959 22.29C44.5585 22.5129 44.456 22.7197 44.3012 22.8842C44.1463 23.0488 43.9462 23.1638 43.7261 23.2147C43.5059 23.2656 43.2756 23.2501 43.0643 23.1701C42.8529 23.0901 42.67 22.9493 42.5387 22.7655L40.9524 20.5483L32.7833 25.7689C32.4349 25.9918 32.0177 26.0813 31.6086 26.0208C31.1994 25.9603 30.826 25.7539 30.557 25.4397L26.0016 20.114L17.4827 24.4912C17.0784 24.6991 16.608 24.7379 16.1751 24.599C15.7421 24.4601 15.3821 24.1549 15.1741 23.7506C14.9662 23.3463 14.9274 22.8759 15.0663 22.4429C15.2052 22.01 15.5104 21.65 15.9147 21.442L25.6404 16.4432C25.9838 16.2668 26.3767 16.2114 26.7554 16.2861C27.1341 16.3608 27.4766 16.5611 27.7273 16.8546L32.1936 22.0775L38.9593 17.7529L37.6404 15.9083C37.5093 15.7244 37.4356 15.5057 37.4287 15.2799C37.4218 15.0541 37.482 14.8314 37.6016 14.6397ZM22.6393 25.8626L16.0061 29.6569C15.7441 29.8066 15.5262 30.0228 15.3745 30.2836C15.2228 30.5445 15.1426 30.8408 15.1421 31.1426V44.2855C15.1421 45.2317 15.9101 45.9997 16.8564 45.9997H22.6393V25.8626ZM25.4964 45.9997H33.8804V30.4295L30.1113 32.3129L26.3444 25.7209C26.1538 25.386 25.8559 25.1251 25.4987 24.9803L25.4964 45.9997ZM43.1421 45.9997H36.7376V29.0009L42.3764 26.1803C42.6378 26.0498 42.9282 25.9883 43.22 26.0016C43.5118 26.0148 43.7954 26.1024 44.0438 26.2561C44.2923 26.4097 44.4973 26.6243 44.6395 26.8795C44.7818 27.1346 44.8564 27.4219 44.8564 27.714V44.2855C44.8564 44.7401 44.6758 45.1761 44.3543 45.4976C44.0328 45.8191 43.5968 45.9997 43.1421 45.9997Z" fill="white"/>
</g>
</g>
</g>
<defs>
<filter id="filter0_d_9_12988" x="-1.0847" y="0" width="68.6776" height="72.6774" filterUnits="userSpaceOnUse" color-interpolation-filters="sRGB">
<feFlood flood-opacity="0" result="BackgroundImageFix"/>
<feColorMatrix in="SourceAlpha" type="matrix" values="0 0 0 0 0 0 0 0 0 0 0 0 0 0 0 0 0 0 127 0" result="hardAlpha"/>
<feOffset dx="3.2541" dy="4.33881"/>
<feGaussianBlur stdDeviation="2.1694"/>
<feComposite in2="hardAlpha" operator="out"/>
<feColorMatrix type="matrix" values="0 0 0 0 0 0 0 0 0 0 0 0 0 0 0 0 0 0 0.12 0"/>
<feBlend mode="normal" in2="BackgroundImageFix" result="effect1_dropShadow_9_12988"/>
<feBlend mode="normal" in="SourceGraphic" in2="effect1_dropShadow_9_12988" result="shape"/>
</filter>
<linearGradient id="paint0_linear_9_12988" x1="0" y1="0" x2="60" y2="60" gradientUnits="userSpaceOnUse">
<stop stop-color="#FF2F00"/>
<stop offset="1" stop-color="#FF4D25"/>
</linearGradient>
<clipPath id="clip0_9_12988">
<rect width="60" height="63.9998" fill="white"/>
</clipPath>
<clipPath id="clip1_9_12988">
<rect width="32" height="32" fill="white" transform="translate(14 14)"/>
</clipPath>
</defs>
</svg>
