<svg width="17" height="18" viewBox="0 0 17 18" fill="none" xmlns="http://www.w3.org/2000/svg">
<g clip-path="url(#clip0_2_3280)">
<path d="M2.61133 10.1726C2.61133 13.4444 5.23668 16.0764 8.50188 16.0764C11.7671 16.0764 14.3924 13.4444 14.3924 10.1726C14.3924 9.78342 14.122 9.50637 13.7328 9.50637C13.3568 9.50637 13.1061 9.78342 13.1061 10.1726C13.1061 12.732 11.0547 14.7835 8.50188 14.7835C5.94909 14.7835 3.90422 12.732 3.90422 10.1726C3.90422 7.60002 5.9359 5.56174 8.48209 5.56174C8.91745 5.56174 9.31983 5.59472 9.65625 5.66728L7.86204 7.4483C7.7433 7.57363 7.68393 7.71216 7.68393 7.88366C7.68393 8.24646 7.95438 8.52351 8.31059 8.52351C8.49529 8.52351 8.647 8.46414 8.75914 8.34541L11.4702 5.61451C11.6088 5.47599 11.6747 5.31768 11.6747 5.13957C11.6747 4.96807 11.6022 4.79656 11.4702 4.66464L8.75914 1.91395C8.647 1.78862 8.49529 1.72266 8.31059 1.72266C7.95438 1.72266 7.68393 2.0129 7.68393 2.3691C7.68393 2.54061 7.7433 2.69232 7.85544 2.81106L9.45176 4.38759C9.16152 4.32822 8.82511 4.29524 8.48209 4.29524C5.22349 4.29524 2.61133 6.9074 2.61133 10.1726Z" fill="#2D3039" fill-opacity="0.6"/>
</g>
<defs>
<clipPath id="clip0_2_3280">
<rect width="16.8867" height="16.8867" fill="white" transform="translate(0.0786133 0.95752)"/>
</clipPath>
</defs>
</svg>
